<?xml version="1.0" standalone="no"?><!DOCTYPE svg PUBLIC "-//W3C//DTD SVG 1.1//EN" "http://www.w3.org/Graphics/SVG/1.1/DTD/svg11.dtd"><svg class="icon" width="200px" height="200.00px" viewBox="0 0 1024 1024" version="1.1" xmlns="http://www.w3.org/2000/svg"><path fill="#d6204b" d="M188.145 483.757c10.643-2.752 78.255-31.968 88.91-34.746-28.467-31.682-49.629-73.17-76.067-133.692-35.12 8.707-95.946 26.832-95.946 26.832s78.786 133.367 83.103 141.606z m391.005 113.55l72.484 81.97c124.201-41.921 289.47-207.381 289.47-207.381l-83.033-84.747S777.048 512.563 579.15 597.308zM429.878 435.796l67.01 35.223c62.95-62.908 115.166-162.376 115.166-162.376l-104.46-39.034s-40.914 113.175-77.716 166.187z m231.534 30.313c104.928-51.825 246.786-228.761 246.786-228.761l-82.004-77.252s-118.646 174.897-231.178 233.63l66.396 72.383z m-49.358 257.5l-191.867-101.29h188.429V510.975H411.623v-51.39H283.15v51.39H69.026v111.345h162.733c-48.332 65.44-72.827 93.026-162.634 148.381l65.81 97.24c81.268-59.954 112.82-97.508 148.214-142.843v196.994h128.474V725.097l140.528 82.07 59.903-83.559zM877.986 602.06s-89.454 160.007-356.384 233.295l38.994 86.737C826.11 857.32 936.96 716.482 959.78 693.981l-81.793-91.922zM314.862 430.092s81.25 0.552 94.51 0c-9.317-49.382-11.48-70.895-18.902-132.455L276.616 315.87c15.679 37.814 30.735 65.977 38.246 114.222z m288.837-208.118L571.255 108.42s-78.148 70.293-484.343 78.123l4.956 93.778c482.08 9.754 511.831-58.347 511.831-58.347z"  /></svg>