<?xml version="1.0" standalone="no"?><!DOCTYPE svg PUBLIC "-//W3C//DTD SVG 1.1//EN" "http://www.w3.org/Graphics/SVG/1.1/DTD/svg11.dtd"><svg class="icon" width="200px" height="200.00px" viewBox="0 0 1024 1024" version="1.1" xmlns="http://www.w3.org/2000/svg"><path fill="#d6204b" d="M955.904 945.8688l-104.448-104.448c42.0864-52.736 67.2768-119.5008 67.2768-192.2048 0-170.5984-138.24-308.8384-308.8384-308.8384-170.5984 0-308.8384 138.24-308.8384 308.8384s138.24 308.8384 308.8384 308.8384c70.4512 0 135.168-23.8592 187.1872-63.5904L902.144 999.6288c7.4752 7.3728 17.1008 11.1616 26.8288 11.1616 9.728 0 19.456-3.6864 26.8288-11.1616C970.752 984.7808 970.752 960.7168 955.904 945.8688zM372.1216 649.3184c0-131.3792 106.496-237.8752 237.8752-237.8752s237.8752 106.496 237.8752 237.8752S741.376 887.0912 609.9968 887.0912 372.1216 780.5952 372.1216 649.3184z"  /><path fill="#d6204b" d="M476.3648 531.3536c-7.8848-4.3008-17.8176-1.3312-22.1184 6.656-17.8176 33.0752-28.7744 68.9152-32.3584 106.5984-0.8192 9.0112 5.7344 16.9984 14.7456 17.8176 0.512 0.1024 1.024 0.1024 1.536 0.1024 8.2944 0 15.4624-6.3488 16.2816-14.7456 3.1744-33.3824 12.8-65.024 28.5696-94.208C487.3216 545.4848 484.352 535.6544 476.3648 531.3536z"  /><path fill="#d6204b" d="M253.3376 648.704c0-193.6384 156.9792-350.72 350.72-350.72 66.9696 0 129.2288 19.0464 182.4768 51.6096l0.9216-2.7648L787.456 103.424c0-49.0496-39.7312-88.7808-88.7808-88.7808L177.3568 14.6432c-49.0496 0-88.7808 39.7312-88.7808 88.7808l0 804.2496c0 49.0496 39.7312 88.7808 88.7808 88.7808l219.136 0 160.4608-0.6144C385.6384 972.8 253.3376 826.368 253.3376 648.704zM352.1536 77.4144l171.7248 0c8.6016 0 15.5648 6.9632 15.5648 15.4624 0 8.6016-6.9632 15.4624-15.5648 15.4624L352.1536 108.3392c-8.6016 0-15.5648-6.9632-15.5648-15.4624C336.5888 84.3776 343.552 77.4144 352.1536 77.4144z"  /></svg>