<?xml version="1.0" standalone="no"?><!DOCTYPE svg PUBLIC "-//W3C//DTD SVG 1.1//EN" "http://www.w3.org/Graphics/SVG/1.1/DTD/svg11.dtd"><svg class="icon" width="200px" height="200.00px" viewBox="0 0 1024 1024" version="1.1" xmlns="http://www.w3.org/2000/svg"><path fill="#d6204b" d="M350.66 867.75h322.66c9.89 0 18.14 8.25 18.14 18.14v18.14c0 9.9-8.25 18.14-18.14 18.14H350.66c-9.89 0-18.14-8.24-18.14-18.14v-18.14c0-9.89 8.25-18.14 18.14-18.14z m358.39-346.84c-29.69 0-53.87 24.73-53.87 54.96s24.19 54.97 53.87 54.97c29.68 0 53.87-24.74 53.87-54.97-0.01-30.22-24.19-54.96-53.87-54.96z m53.86-237.45c0-20.34-15.94-36.82-35.73-36.82H296.79c-19.79 0-35.73 16.49-35.73 36.82v146.21c0 20.34 15.94 36.83 35.73 36.83h430.39c19.79 0 35.73-16.49 35.73-36.83V283.46zM314.39 630.84c29.68 0 53.87-24.74 53.87-54.97s-24.19-54.96-53.87-54.96c-29.69 0-53.87 24.73-53.87 54.96 0.55 30.24 24.18 54.97 53.87 54.97z m539.22 323.21c-16.49 9.35-36.82 3.85-46.17-12.64l-73.66-129.72c-6.04 1.1-12.64 1.65-18.69 1.65H309.44c-6.59 0-12.64-0.55-18.69-1.65l-73.66 129.72c-9.35 16.49-30.23 21.99-46.17 12.64-16.49-9.34-21.99-30.78-12.64-47.27l68.71-120.93c-36.27-26.38-58.27-70.36-54.96-119.28l25.83-393.56c4.4-65.96 46.17-118.18 117.08-118.18h107.73c0-50.57 40.12-91.24 89.59-91.24 49.47 0 89.6 40.67 89.6 91.24h125.33c71.45 0 94.54 52.22 98.94 118.18l25.83 393.56c3.3 48.92-18.69 92.89-54.96 119.28l68.71 120.93c9.34 17.04 3.84 37.93-12.1 47.27z m0 0" /></svg>