<?xml version="1.0" standalone="no"?><!DOCTYPE svg PUBLIC "-//W3C//DTD SVG 1.1//EN" "http://www.w3.org/Graphics/SVG/1.1/DTD/svg11.dtd"><svg class="icon" width="200px" height="200.00px" viewBox="0 0 1024 1024" version="1.1" xmlns="http://www.w3.org/2000/svg"><path fill="#d6204b" d="M735.744 55.648l-63.488 48.688L784 250.096V368a32 32 0 0 0 32 32h32v432c0 17.648-14.352 32-32 32s-32-14.352-32-32V632c0-66.176-53.824-120-120-120H640V232C640 139.36 564.64 64 472 64h-224C155.36 64 80 139.36 80 232V944h560V592h24c22.048 0 40 17.936 40 40V832c0 61.76 50.24 112 112 112s112-50.24 112-112V306.432L735.744 55.648zM560 368H224v80h336v416H160V232c0-48.512 39.472-88 88-88h224c48.528 0 88 39.488 88 88V368z"  /></svg>