<?xml version="1.0" standalone="no"?><!DOCTYPE svg PUBLIC "-//W3C//DTD SVG 1.1//EN" "http://www.w3.org/Graphics/SVG/1.1/DTD/svg11.dtd"><svg class="icon" width="200px" height="200.00px" viewBox="0 0 1024 1024" version="1.1" xmlns="http://www.w3.org/2000/svg"><path fill="#d6204b" d="M643.429645 195.313778c-12.736646-13.187879-33.782949-13.553778-47.017374-0.826182l-79.244929 76.430222-76.216889-76.035879c-13.000404-12.990061-34.046707-12.960323-47.053576 0.036202-12.968081 12.991354-12.933172 34.028606 0.036202 47.018667l75.217455 75.036444-51.212929 0c-18.353131 0-33.250263 14.888081-33.250263 33.233455 0 18.340202 14.898424 33.22699 33.250263 33.22699l66.278141 0 0 33.233455-66.278141 0c-18.353131 0-33.250263 14.886788-33.250263 33.230869 0 18.340202 14.898424 33.228283 33.250263 33.228283l66.278141 0 0 68.189091c0 18.376404 14.895838 33.233455 33.24897 33.233455 18.38804 0 33.256727-14.857051 33.256727-33.233455l0-68.189091 66.803071 0c18.389333 0 33.255434-14.888081 33.255434-33.228283 0-18.345374-14.866101-33.230869-33.255434-33.230869l-66.803071 0 0-33.233455 66.803071 0c18.389333 0 33.255434-14.886788 33.255434-33.22699 0-18.345374-14.866101-33.233455-33.255434-33.233455l-52.339071 0 77.380525-74.634343C655.799099 229.545374 656.164998 208.54303 643.429645 195.313778L643.429645 195.313778zM939.904796 745.786182c-21.245414-8.741495-83.396525-34.064808-147.206465-58.918788 64.540444-70.116848 101.383758-162.563879 101.383758-258.170828C894.082089 217.982707 722.498736 46.545455 511.606453 46.545455 300.750372 46.545455 129.198049 217.982707 129.198049 428.696566c0 16.849455 1.060202 33.598061 3.192242 49.81398 2.395798 18.178586 19.220687 30.802747 37.310061 28.643556 18.21996-2.389333 31.057455-19.069414 28.661657-37.284202-1.759677-13.357253-2.658263-27.213576-2.658263-41.173333 0-174.05802 141.721859-315.689374 315.902707-315.689374 174.213172 0 315.969939 141.631354 315.969939 315.689374 0 87.995475-35.446949 169.646545-99.891717 229.992727-0.796444 0.765414-1.131313 1.825616-1.891556 2.625939-44.529778-16.550788-82.438465-29.575758-97.432566-31.837091-25.871515-4.05204-50.576808 7.908848-65.576081 30.007596-12.502626 18.477253-15.663838 40.310949-8.413091 58.419717 4.454141 11.067475 21.315232 34.159192 41.333657 59.482505-48.249535-0.065939-121.90901-6.577131-200.383354-36.853657-32.49002-12.524606-72.158384-54.659879-107.173495-91.813495-49.846303-52.936404-96.934788-102.917172-148.146424-102.917172-19.052606 0-37.14198 7.112404-52.302869 20.535596-18.956929 16.848162-36.513616 50.178586-12.472889 113.449374C119.516594 796.26602 291.936473 975.875879 430.335504 975.875879l496.868848 0c18.38804 0 33.24897-14.850586 33.24897-33.232162l0-166.154343C960.525726 763.067475 952.377685 750.903596 939.904796 745.786182L939.904796 745.786182zM894.014857 909.446465 431.466817 909.446465l-1.065374 33.232162L430.401443 909.446465c-101.41996 0-256.744727-157.975273-292.958384-253.251232-10.508929-27.681616-6.981818-38.846061-5.55701-40.109253 4.292525-3.78699 6.784-3.78699 8.150626-3.78699 22.476283 0 67.137939 47.384566 99.723636 81.980768 41.800404 44.39402 85.061818 90.287838 131.61503 108.263434 88.556606 34.165657 171.355798 41.338828 225.225697 41.338828 42.997657 0 70.229333-4.517495 71.360646-4.719192 11.772121-2.023434 21.549253-10.131394 25.640081-21.33204 4.120566-11.200646 1.927758-23.725253-5.754828-32.831354-28.064323-33.330424-60.887919-74.568404-69.929374-88.623838 0.29996-0.598626 0.532687-1.065374 0.364606-1.197253 23.742061 3.620202 168.793212 60.176808 275.666747 103.678707L893.948918 909.446465 894.014857 909.446465zM894.014857 909.446465"  /></svg>