<?xml version="1.0" encoding="UTF-8"?>
<svg version="1.1" xmlns="http://www.w3.org/2000/svg" width="500" height="500">
<path d="M0 0 C3.030415 8.96497769 4.19023876 15.16928516 0.16796875 23.984375 C-1.00999503 26.01724895 -2.26530072 27.42932673 -4 29 C-3.01 29.66 -2.02 30.32 -1 31 C-1 31.99 -1 32.98 -1 34 C0.010625 33.67 1.02125 33.34 2.0625 33 C10.72954335 30.60789604 17.23054888 33.11527444 25 37 C25 37.66 25 38.32 25 39 C25.639375 39.2475 26.27875 39.495 26.9375 39.75 C29 41 29 41 29.75 43.125 C29.8325 43.74375 29.915 44.3625 30 45 C24.98257605 49.85017649 19.05472075 51.85538719 12.15234375 52.1015625 C6.08486903 51.75103439 1.99533224 50.44122888 -3 47 C-3 46.34 -3 45.68 -3 45 C-3.639375 44.7525 -4.27875 44.505 -4.9375 44.25 C-7 43 -7 43 -7.62890625 40.921875 C-7.75136719 40.28765625 -7.87382812 39.6534375 -8 39 C-9.81598825 40.45398729 -11.62769519 41.91332325 -13.4375 43.375 C-14.44683594 44.18710938 -15.45617187 44.99921875 -16.49609375 45.8359375 C-19.03528755 47.75034341 -19.03528755 47.75034341 -20 50 C-19.28199219 49.67902344 -18.56398438 49.35804688 -17.82421875 49.02734375 C-12.34936829 47.03580064 -6.70526068 47.05164744 -1.203125 48.98046875 C7.47525241 53.15276558 7.47525241 53.15276558 10 57 C10.1875 59.5 10.1875 59.5 9 62 C3.31403623 66.23422834 -3.23954454 68.23644646 -10.359375 67.8828125 C-17.7479022 66.63440618 -22.89580191 62.24511154 -28 57 C-29.485 57.495 -29.485 57.495 -31 58 C-31 58.66 -31 59.32 -31 60 C-31.66 60 -32.32 60 -33 60 C-33.28875 60.5775 -33.5775 61.155 -33.875 61.75 C-35.4375 64.875 -35.4375 64.875 -37 68 C-36.41992188 67.7834375 -35.83984375 67.566875 -35.2421875 67.34375 C-27.18260523 64.47102761 -22.2716233 64.49727824 -14.34765625 67.84375 C-11.55373426 69.21979144 -9.27489432 70.8767653 -7 73 C-7.24408489 76.295146 -8.20433305 77.19946798 -10.625 79.5625 C-17.27436952 84.6556341 -23.7652168 86.07822341 -32 85 C-37.01888144 83.34402389 -41.03662535 80.46795282 -45 77 C-48.34169478 81.8665458 -51.52303815 86.63324933 -54 92 C-53.42894531 91.566875 -52.85789062 91.13375 -52.26953125 90.6875 C-45.24256692 85.86134961 -39.43653743 84.7198289 -31 86 C-27.79815341 87.03485097 -24.91011064 88.31559488 -22 90 C-22 93.33409072 -22.44687647 95.38865294 -24.70703125 97.88671875 C-31.87571965 104.23080848 -36.65071053 105.54241542 -46.26953125 105.3359375 C-51.12355814 104.89882094 -53.95685512 103.64042115 -58 101 C-66.79585007 117.58357978 -68.04082007 138.85360021 -62.6875 156.75 C-61.37770359 160.96626393 -59.91704338 164.61246575 -57 168 C-56.91363281 167.40574219 -56.82726562 166.81148437 -56.73828125 166.19921875 C-55.55505525 159.21927086 -53.14772338 153.31947517 -50 147 C-49.34 147 -48.68 147 -48 147 C-47.72929687 146.40058594 -47.45859375 145.80117187 -47.1796875 145.18359375 C-43.57994572 138.52049556 -36.03065814 134.67269574 -29.03948975 132.4725647 C-21.44642396 130.7131958 -13.24497856 131.29339449 -5.5 131.3125 C-2.62578524 131.30358733 0.24808631 131.28763324 3.12219238 131.2610321 C4.8984194 131.24618374 6.67478123 131.24227416 8.4510498 131.25080872 C9.65380554 131.24521187 9.65380554 131.24521187 10.88085938 131.23950195 C11.93243225 131.24213799 11.93243225 131.24213799 13.00524902 131.24482727 C15.33852514 130.95845086 16.96579919 130.14989346 19 129 C19 128.34 19 127.68 19 127 C19.66 127 20.32 127 21 127 C21.35578125 126.15695313 21.35578125 126.15695313 21.71875 125.296875 C23.28947697 122.48105958 25.21471464 120.52044584 27.5 118.25 C28.2940625 117.45078125 29.088125 116.6515625 29.90625 115.828125 C32 114 32 114 34 114 C34 113.34 34 112.68 34 112 C34.66 112 35.32 112 36 112 C36.20866699 111.46536133 36.41733398 110.93072266 36.63232422 110.37988281 C38.53935575 107.06147094 41.17310864 104.58148695 43.8828125 101.921875 C44.74421341 101.06471893 44.74421341 101.06471893 45.62301636 100.19024658 C47.4523581 98.37207055 49.28854193 96.56098508 51.125 94.75 C52.36894774 93.51608671 53.6124427 92.28171678 54.85546875 91.046875 C57.89842367 88.02593257 60.94753254 85.01132908 64 82 C63.34338379 82.0714624 62.68676758 82.1429248 62.01025391 82.21655273 C57.45101708 82.69592153 52.96540442 83.12807721 48.375 83.0625 C47.53710938 83.05347656 46.69921875 83.04445313 45.8359375 83.03515625 C45.23007812 83.02355469 44.62421875 83.01195312 44 83 C43.67 80.69 43.34 78.38 43 76 C46.4976864 74.46768777 49.63716279 73.62136117 53.421875 73.1484375 C54.44796875 73.01953125 55.4740625 72.890625 56.53125 72.7578125 C57.5934375 72.63148438 58.655625 72.50515625 59.75 72.375 C61.32007813 72.17390625 61.32007813 72.17390625 62.921875 71.96875 C68.99833651 71.22438346 74.87928764 70.85914679 81 71 C81.24070037 78.37392651 80.76047263 85.60124174 80.0625 92.9375 C79.97564941 93.86135498 79.88879883 94.78520996 79.79931641 95.73706055 C79.41784137 99.58600966 79.01873324 103.26038006 78 107 C75.36 107 72.72 107 70 107 C70 101.06 70 95.12 70 89 C64.60335131 94.37198567 59.20995264 99.74720501 53.81958008 105.12548828 C51.98421447 106.95581569 50.14795364 108.78524586 48.31079102 110.61376953 C45.67490238 113.2375702 43.04221801 115.86454863 40.41015625 118.4921875 C39.17109276 119.72350906 39.17109276 119.72350906 37.90699768 120.97970581 C37.14628464 121.74034332 36.38557159 122.50098083 35.60180664 123.28466797 C34.92896133 123.95529266 34.25611603 124.62591736 33.56288147 125.31686401 C31.91761101 126.93070348 31.91761101 126.93070348 31 129 C30.34 129 29.68 129 29 129 C29 129.66 29 130.32 29 131 C28.34 131 27.68 131 27 131 C27 131.66 27 132.32 27 133 C26.34 133 25.68 133 25 133 C25 133.66 25 134.32 25 135 C24.34 135 23.68 135 23 135 C23 135.66 23 136.32 23 137 C22.34 137 21.68 137 21 137 C21 137.66 21 138.32 21 139 C17.59004192 140.70497904 13.68766108 140.17979518 9.93359375 140.2109375 C8.06704886 140.23902857 6.20051253 140.26769315 4.33398438 140.296875 C1.39380336 140.33796563 -1.54622175 140.37485321 -4.48657227 140.40136719 C-7.32602033 140.42918845 -10.16474307 140.47508272 -13.00390625 140.5234375 C-14.30286583 140.5283168 -14.30286583 140.5283168 -15.62806702 140.53329468 C-25.20087961 140.72350789 -32.95642473 143.43317328 -40 150 C-44.33830248 154.7897502 -46.94577582 159.8044043 -47.03125 166.41796875 C-46.67343218 172.33090826 -45.19200389 176.05754236 -42 181 C-42 181.66 -42 182.32 -42 183 C-41.34 183 -40.68 183 -40 183 C-40 183.66 -40 184.32 -40 185 C-39.01 185.37125 -39.01 185.37125 -38 185.75 C-35 187 -35 187 -33.34375 187.953125 C-21.28710327 194.79884814 -6.10370961 193.95255259 7 191 C15.43245578 188.53266508 23.33733345 185.41783775 30.3984375 180.1015625 C32 179 32 179 34 179 C34 178.34 34 177.68 34 177 C35.14576596 175.95244255 36.3439356 174.96190283 37.5625 174 C46.50243739 166.38918605 54.23434454 154.41114402 55.20678711 142.45825195 C55.30479812 139.55279831 55.32197533 136.65703117 55.3125 133.75 C55.32861328 132.77675781 55.34472656 131.80351562 55.36132812 130.80078125 C55.36598845 123.78233052 54.15889155 117.66863056 52 111 C53.62339805 109.29115995 55.29319053 107.62553283 57 106 C57.66 106 58.32 106 59 106 C66.4411125 119.97917737 66.62231377 136.83156109 63 152 C60.82162671 159.13207795 57.31760889 164.96768357 53 171 C52.34 171.99 51.68 172.98 51 174 C50.34 174 49.68 174 49 174 C48.773125 174.556875 48.54625 175.11375 48.3125 175.6875 C46.62449964 178.66159588 44.53323483 180.72008865 42 183 C41.34 183 40.68 183 40 183 C40 183.66 40 184.32 40 185 C22.81174809 198.80545765 1.61957379 203.80124328 -20 202 C-24.47711509 201.34971892 -28.68114902 200.33283746 -33 199 C-34.02480469 198.70996094 -35.04960937 198.41992188 -36.10546875 198.12109375 C-43.09139756 196.00495055 -48.94803989 193.05059988 -55 189 C-55.9384375 188.38253906 -56.876875 187.76507813 -57.84375 187.12890625 C-63.036828 183.62066114 -63.036828 183.62066114 -65 182 C-65 181.34 -65 180.68 -65 180 C-65.54269531 179.79375 -66.08539063 179.5875 -66.64453125 179.375 C-69.91219415 177.46750856 -72.19812487 174.79601339 -74.6875 172 C-75.18572266 171.4534375 -75.68394531 170.906875 -76.19726562 170.34375 C-79.85058891 166.29882219 -79.85058891 166.29882219 -81 164 C-82.7147328 163.47482354 -84.4334551 162.95980737 -86.16821289 162.50512695 C-98.49693284 159.2415184 -107.68629247 153.34383176 -114.671875 142.33984375 C-120.77081959 131.59493843 -121.62604926 121.14244371 -121 109 C-120.67 108.01 -120.34 107.02 -120 106 C-108.93164732 104.99378612 -98.5525293 110.39306978 -90 117 C-82.50070424 123.81883036 -76.5587746 133.98101793 -75.84350586 144.24584961 C-75.80427418 146.64638416 -75.82471224 149.0372264 -75.875 151.4375 C-75.88402344 152.26443359 -75.89304688 153.09136719 -75.90234375 153.94335938 C-75.92568488 155.96236708 -75.96154712 157.98122356 -76 160 C-75.34 160 -74.68 160 -74 160 C-70 164.47058824 -70 164.47058824 -70 167 C-69.34 166.67 -68.68 166.34 -68 166 C-68.39832031 164.98292969 -68.39832031 164.98292969 -68.8046875 163.9453125 C-77.72201084 140.44784005 -74.8175954 117.66277261 -65 95 C-64.505 93.515 -64.505 93.515 -64 92 C-65.65 92 -67.3 92 -69 92 C-69 91.34 -69 90.68 -69 90 C-69.66 90 -70.32 90 -71 90 C-71 89.34 -71 88.68 -71 88 C-71.66 88 -72.32 88 -73 88 C-79.47676712 74.75512329 -79.47676712 74.75512329 -77 67 C-73.41823148 57.8407174 -73.41823148 57.8407174 -69.83203125 55.71484375 C-69.22746094 55.47894531 -68.62289062 55.24304688 -68 55 C-61.58755367 59.03068055 -58.76948864 65.64722809 -57.125 72.8125 C-57.00819296 75.79107956 -57.36265745 78.11234798 -58 81 C-57.26136719 79.98421875 -56.52273437 78.9684375 -55.76171875 77.921875 C-48.73166771 68.34859276 -41.4082626 59.4082626 -33 51 C-33.598125 50.67 -34.19625 50.34 -34.8125 50 C-39.49171552 45.72186009 -40.2216959 40.12334486 -40.5 34.0625 C-40.29560334 27.01525859 -38.03118267 22.20363507 -33.21484375 17.11328125 C-28.69886364 13 -28.69886364 13 -25 13 C-24.3490741 14.24735567 -23.70448331 15.49801832 -23.0625 16.75 C-22.52302734 17.79414062 -22.52302734 17.79414062 -21.97265625 18.859375 C-19.47001849 24.36718823 -19.01406079 30.53201614 -20.671875 36.36328125 C-21.38825218 38.26573574 -22.18696797 40.1368016 -23 42 C-22.071875 41.38125 -21.14375 40.7625 -20.1875 40.125 C-18.125 38.75 -16.0625 37.375 -14 36 C-15.485 35.01 -15.485 35.01 -17 34 C-19.40972064 27.91228471 -20.31769593 21.08841871 -18.27734375 14.7578125 C-16.23538718 10.37628625 -13.65231468 7.20691045 -10 4 C-8.7625 2.8553125 -8.7625 2.8553125 -7.5 1.6875 C-4.63420941 -0.24690865 -3.36012786 -0.15120575 0 0 Z M-10 12 C-12.96228201 17.17277275 -13.31386545 21.26676893 -12 27 C-8.92596739 25.50452468 -7.17546878 24.24807656 -5.1875 21.4375 C-3.61321789 16.88036758 -3.74534497 12.77242384 -4 8 C-6.51151521 8 -8.34390533 10.42276698 -10 12 Z M-29 22 C-33.07687227 26.71388356 -34.22584888 29.77281193 -34.16796875 36.05859375 C-33.96569543 38.39649701 -33.29922669 40.05115996 -32 42 C-27.36702046 36.44042455 -25.47074517 33.40956764 -26 26 C-26.88064927 23.64630193 -26.88064927 23.64630193 -28 22 C-28.33 22 -28.66 22 -29 22 Z M1 41 C4.73934354 44.73934354 7.73606852 45.67691824 12.84375 46.04296875 C15.62499555 45.98754538 17.60933596 45.41945677 20 44 C20.33 43.34 20.66 42.68 21 42 C13.48505664 37.72754489 8.90529419 36.48268903 1 41 Z M-18 56 C-18 56.66 -18 57.32 -18 58 C-14.08648823 61.3917102 -10.33215328 61.35286145 -5.40234375 61.3984375 C-2.5551975 60.92622788 -1.15060312 59.87743182 1 58 C-4.97938796 53.25772679 -11.03897587 52.624958 -18 56 Z M-69 64 C-71.64913956 69.19231353 -72.49002472 72.14633147 -71 78 C-69.54276115 81.33443944 -69.54276115 81.33443944 -68 84 C-67.34 84 -66.68 84 -66 84 C-64.10290465 79.62924111 -62.55456817 75.86225739 -63.69140625 71.109375 C-64.69197581 68.66896144 -65.75784675 66.32594433 -67 64 C-67.66 64 -68.32 64 -69 64 Z M-40 69 C-40.33 69.66 -40.66 70.32 -41 71 C-40.34 71 -39.68 71 -39 71 C-39.33 70.34 -39.66 69.68 -40 69 Z M-36 75 C-33.08122823 78.41754923 -30.69761293 78.71269892 -26.359375 79.07421875 C-22.62135977 78.95663218 -20.25002463 77.82813885 -17 76 C-16.67 75.34 -16.34 74.68 -16 74 C-22.28553525 70.64771453 -30.33579527 70.46863622 -36 75 Z M-55 92 C-54 94 -54 94 -54 94 Z M-49 97 C-49 97.66 -49 98.32 -49 99 C-42.70333298 100.18508699 -38.60116679 100.31497626 -33 97 C-31.5181036 94.9648239 -31.5181036 94.9648239 -31 93 C-32.71039781 91.28960219 -34.85093956 91.70698458 -37.1875 91.625 C-42.90834408 91.65479606 -45.24455599 92.73706356 -49 97 Z M-57 95 C-56 97 -56 97 -56 97 Z M-114 114 C-114.67051772 125.62230721 -111.40909631 135.93055199 -104 145 C-103.34 145 -102.68 145 -102 145 C-102 145.66 -102 146.32 -102 147 C-100.12886888 148.63368673 -100.12886888 148.63368673 -97.75 150.1875 C-96.96109375 150.73792969 -96.1721875 151.28835938 -95.359375 151.85546875 C-92.59247985 153.19768776 -91.83071868 152.87331476 -89 152 C-89.35304199 151.48614746 -89.70608398 150.97229492 -90.06982422 150.44287109 C-91.67895165 148.09188353 -93.27701881 145.73357635 -94.875 143.375 C-95.43058594 142.56675781 -95.98617187 141.75851563 -96.55859375 140.92578125 C-99.39558498 136.72156533 -101.72696289 132.97934767 -103 128 C-101.35 128 -99.7 128 -98 128 C-97.65775391 128.77150391 -97.65775391 128.77150391 -97.30859375 129.55859375 C-95.50119627 132.93060398 -93.29470815 135.96060036 -91.0625 139.0625 C-90.61970703 139.68705078 -90.17691406 140.31160156 -89.72070312 140.95507812 C-89.28822266 141.55900391 -88.85574219 142.16292969 -88.41015625 142.78515625 C-88.01965088 143.33051025 -87.62914551 143.87586426 -87.22680664 144.43774414 C-85.92701423 146.09294247 -84.51494843 147.54151608 -83 149 C-83.2242401 139.41883199 -86.22951367 131.00395138 -93 124 C-93.66 124 -94.32 124 -95 124 C-95 123.34 -95 122.68 -95 122 C-100.71722183 117.32458304 -106.50356746 114 -114 114 Z " fill="#BB9C5F" transform="translate(270,108)"/>
<path d="M0 0 C0.66 0 1.32 0 2 0 C3.54034931 3.96089823 4.28695326 7.7529174 4.875 11.9375 C5.68456064 17.19311547 7.11696168 20.57934125 10 25 C10 25.66 10 26.32 10 27 C10.66 27 11.32 27 12 27 C12 27.66 12 28.32 12 29 C12.66 29.2475 13.32 29.495 14 29.75 C17 31 17 31 18.65625 31.953125 C31.54665129 39.27225116 51.57995095 39.09323293 66 37 C66.33 37.99 66.66 38.98 67 40 C58.21378203 42.92873932 50.87300794 44.35828032 41.5625 44.75 C39.73041992 44.85248047 39.73041992 44.85248047 37.86132812 44.95703125 C29.70768817 45.2955006 22.77528078 44.46927348 15 42 C13.90945312 41.65839844 12.81890625 41.31679688 11.6953125 40.96484375 C5.72442837 38.57830496 0.54486612 35.56973209 -4.6875 31.875 C-5.30028809 31.4430835 -5.91307617 31.01116699 -6.54443359 30.56616211 C-10.87056965 27.38829106 -10.87056965 27.38829106 -12 24 C-11.01 22.515 -11.01 22.515 -10 21 C-9.97360171 18.70285813 -9.97360171 18.70285813 -10.375 16.3125 C-10.48585937 15.50425781 -10.59671875 14.69601562 -10.7109375 13.86328125 C-10.80632812 13.24839844 -10.90171875 12.63351562 -11 12 C-10.34 12 -9.68 12 -9 12 C-8.67 11.34 -8.34 10.68 -8 10 C-7.01 10.66 -6.02 11.32 -5 12 C-5 13.32 -5 14.64 -5 16 C-4.34 16 -3.68 16 -3 16 C-3 12.37 -3 8.74 -3 5 C-2.34 4.67 -1.68 4.34 -1 4 C-0.34786708 1.97536745 -0.34786708 1.97536745 0 0 Z " fill="#CFA459" transform="translate(218,264)"/>
<path d="M0 0 C0.24070037 7.37392651 -0.23952737 14.60124174 -0.9375 21.9375 C-1.02435059 22.86135498 -1.11120117 23.78520996 -1.20068359 24.73706055 C-1.58215863 28.58600966 -1.98126676 32.26038006 -3 36 C-5.31 36 -7.62 36 -10 36 C-10 34.35 -10 32.7 -10 31 C-9.34 30.67 -8.68 30.34 -8 30 C-8.33 29.01 -8.66 28.02 -9 27 C-9.068991 24.93854893 -9.08467727 22.87498599 -9.0625 20.8125 C-9.05347656 19.72582031 -9.04445313 18.63914063 -9.03515625 17.51953125 C-9.02355469 16.68808594 -9.01195312 15.85664063 -9 15 C-10.65 15 -12.3 15 -14 15 C-15 12 -15 12 -14 9 C-16.31 9 -18.62 9 -21 9 C-21 9.66 -21 10.32 -21 11 C-26.36095333 12.12862175 -31.55306686 12.09688221 -37 12 C-37.33 9.69 -37.66 7.38 -38 5 C-34.5023136 3.46768777 -31.36283721 2.62136117 -27.578125 2.1484375 C-26.55203125 2.01953125 -25.5259375 1.890625 -24.46875 1.7578125 C-23.4065625 1.63148438 -22.344375 1.50515625 -21.25 1.375 C-19.67992187 1.17390625 -19.67992187 1.17390625 -18.078125 0.96875 C-12.00166349 0.22438346 -6.12071236 -0.14085321 0 0 Z " fill="#CFA75B" transform="translate(351,179)"/>
<path d="M0 0 C-0.45240688 8.29412615 -3.22140037 14.77271741 -9.4375 20.4375 C-14.44232101 24.67049319 -19.87143599 25.26214277 -26.25 25.1875 C-28.08304687 25.17783203 -28.08304687 25.17783203 -29.953125 25.16796875 C-33 25 -33 25 -35 24 C-34.36204894 16.34458731 -31.49913907 9.49913907 -26 4 C-17.66909163 -1.50435017 -9.54659365 -1.27157497 0 0 Z M-25 12 C-26.22894228 14.29931136 -27.10082974 16.53911299 -28 19 C-23.31278181 19.37497746 -19.95124198 19.48459497 -15.6875 17.3125 C-11.46071517 13.6754991 -8.81467642 10.29280624 -7 5 C-13.7205484 4.36994859 -20.34658411 7.21362937 -25 12 Z " fill="#AB9362" transform="translate(307,113)"/>
<path d="M0 0 C5.52229453 3.68152968 8.08746986 8.08915653 9.57421875 14.4609375 C10.40423948 20.26215766 10.02748169 24.91707087 7 30 C4.81494368 32.81974008 2.48388225 35.44126103 0 38 C-2.82762827 37.43447435 -4.55947048 36.51196674 -6.4453125 34.3203125 C-10.60071085 27.83789107 -11.03834484 21.53514466 -10 14 C-8.41372832 8.98351646 -5.52884629 4.88173092 -2 1 C-1.34 0.67 -0.68 0.34 0 0 Z M-1 10 C-4.02584887 15.04308144 -4.45458358 18.27224689 -4 24 C-3.11785113 26.88214887 -3.11785113 26.88214887 -2 29 C-0.00016466 28.20882096 -0.00016466 28.20882096 2 27 C2.9702889 24.08913331 3.16467847 22.09776315 3.1875 19.0625 C3.20876953 17.78052734 3.20876953 17.78052734 3.23046875 16.47265625 C2.98703556 13.86090697 2.3178268 12.24499348 1 10 C0.34 10 -0.32 10 -1 10 Z " fill="#B69659" transform="translate(220,139)"/>
<path d="M0 0 C0 0.66 0 1.32 0 2 C0.639375 2.2475 1.27875 2.495 1.9375 2.75 C4 4 4 4 4.75 6.125 C4.8325 6.74375 4.915 7.3625 5 8 C-0.01742395 12.85017649 -5.94527925 14.85538719 -12.84765625 15.1015625 C-18.91513097 14.75103439 -23.00466776 13.44122888 -28 10 C-28 9.34 -28 8.68 -28 8 C-28.66 8 -29.32 8 -30 8 C-30.74778098 5.30798849 -31.1508614 3.5280149 -30.375 0.8125 C-28.53784145 -1.609209 -26.86808817 -2.06620385 -24 -3 C-23.21625 -3.37125 -22.4325 -3.7425 -21.625 -4.125 C-13.72545355 -6.75818215 -7.04482494 -3.52241247 0 0 Z M-24 4 C-20.26065646 7.73934354 -17.26393148 8.67691824 -12.15625 9.04296875 C-9.37500445 8.98754538 -7.39066404 8.41945677 -5 7 C-4.67 6.34 -4.34 5.68 -4 5 C-11.51494336 0.72754489 -16.09470581 -0.51731097 -24 4 Z " fill="#B79A62" transform="translate(295,145)"/>
<path d="M0 0 C0.66 0.66 1.32 1.32 2 2 C1.67 2.66 1.34 3.32 1 4 C15.19 4.33 29.38 4.66 44 5 C44 5.33 44 5.66 44 6 C42.16223999 6.02187378 42.16223999 6.02187378 40.28735352 6.04418945 C35.70796661 6.10250298 31.12905452 6.17973219 26.55004883 6.26245117 C24.57454174 6.2955458 22.59894361 6.32362504 20.62329102 6.34643555 C17.77060428 6.38026756 14.91874035 6.4325957 12.06640625 6.48828125 C11.19415909 6.49467117 10.32191193 6.5010611 9.42323303 6.50764465 C-0.16780678 6.73360088 -7.93831913 9.41629316 -15 16 C-18.8835829 20.28771208 -20.73993464 24.38698157 -22 30 C-24.5654594 27.4345406 -24.54046087 25.52313332 -25 22 C-25.66 22 -26.32 22 -27 22 C-27.33 23.65 -27.66 25.3 -28 27 C-28.66 27 -29.32 27 -30 27 C-30 30.63 -30 34.26 -30 38 C-30.66 38 -31.32 38 -32 38 C-31.96561401 28.45788915 -29.427917 21.39543896 -25 13 C-24.34 13 -23.68 13 -23 13 C-22.73316406 12.401875 -22.46632812 11.80375 -22.19140625 11.1875 C-18.52618038 4.45790495 -7.76008139 -3.29215574 0 0 Z " fill="#B29556" transform="translate(245,242)"/>
<path d="M0 0 C5.12218192 1.66970955 6.89790143 3.9611745 9.70703125 8.40234375 C11.71958361 12.44568912 12.46044336 16.54400636 13 21 C11.02 21.66 9.04 22.32 7 23 C6.5196682 21.41701974 6.04078388 19.83360022 5.5625 18.25 C5.16224609 16.92742187 5.16224609 16.92742187 4.75390625 15.578125 C4.11531506 13.39434165 3.53224167 11.21164502 3 9 C2.34 9 1.68 9 1 9 C-1.54518608 16.33612459 -0.67703673 21.68276626 2 29 C5.27773504 28.24849977 5.27773504 28.24849977 7 25 C7.66 24.67 8.32 24.34 9 24 C9 26.64 9 29.28 9 32 C7.68 31.67 6.36 31.34 5 31 C5 32.98 5 34.96 5 37 C3.68 37 2.36 37 1 37 C1 36.34 1 35.68 1 35 C0.34 35 -0.32 35 -1 35 C-1 34.34 -1 33.68 -1 33 C-1.66 33 -2.32 33 -3 33 C-9.49307101 19.72178211 -9.49307101 19.72178211 -7 12 C-5.17189136 7.61633465 -3.38464841 3.38464841 0 0 Z " fill="#B59960" transform="translate(200,163)"/>
<path d="M0 0 C2 3 2 3 1.75 5.125 C1 7 1 7 -1 8 C-0.34 8.66 0.32 9.32 1 10 C0.34 10 -0.32 10 -1 10 C-1 10.66 -1 11.32 -1 12 C-7.08723655 12.02467081 -13.17444417 12.04284604 -19.26171875 12.05493164 C-21.33366401 12.05996852 -23.4056057 12.06679825 -25.47753906 12.07543945 C-28.45118082 12.08753321 -31.42477569 12.09323467 -34.3984375 12.09765625 C-35.32868744 12.10281754 -36.25893738 12.10797882 -37.21737671 12.11329651 C-38.07811798 12.11337204 -38.93885925 12.11344757 -39.82568359 12.11352539 C-40.96485733 12.11685631 -40.96485733 12.11685631 -42.12704468 12.12025452 C-44 12 -44 12 -46 11 C-46.33 10.01 -46.66 9.02 -47 8 C-47.66 7.67 -48.32 7.34 -49 7 C-49 6.34 -49 5.68 -49 5 C-47.68805664 4.97494385 -46.37611328 4.9498877 -45.02441406 4.92407227 C-40.15647633 4.82989329 -35.28867779 4.72969806 -30.42089844 4.62768555 C-28.31416073 4.58437642 -26.20738883 4.54269847 -24.10058594 4.50268555 C-21.07216081 4.44488573 -18.04390715 4.38121904 -15.015625 4.31640625 C-13.60292328 4.29133751 -13.60292328 4.29133751 -12.16168213 4.26576233 C-11.28107117 4.24581711 -10.40046021 4.22587189 -9.49316406 4.20532227 C-8.72039124 4.18977798 -7.94761841 4.1742337 -7.15142822 4.15821838 C-4.94024437 3.99560551 -3.0779221 3.78684634 -1 3 C-0.67 2.01 -0.34 1.02 0 0 Z " fill="#C6A161" transform="translate(292,235)"/>
<path d="M0 0 C0.66 0 1.32 0 2 0 C3.67696983 4.39206385 4.27163696 8.0547803 4.25 12.75 C4.25515625 13.87921875 4.2603125 15.0084375 4.265625 16.171875 C4 19 4 19 2 21 C1.690625 21.845625 1.38125 22.69125 1.0625 23.5625 C0.711875 24.366875 0.36125 25.17125 0 26 C-0.99 26.33 -1.98 26.66 -3 27 C-3.33 27.66 -3.66 28.32 -4 29 C-7.4375 28.1875 -7.4375 28.1875 -11 27 C-11.33 26.01 -11.66 25.02 -12 24 C-11.01 22.515 -11.01 22.515 -10 21 C-9.97360171 18.70285813 -9.97360171 18.70285813 -10.375 16.3125 C-10.48585937 15.50425781 -10.59671875 14.69601562 -10.7109375 13.86328125 C-10.80632812 13.24839844 -10.90171875 12.63351562 -11 12 C-10.34 12 -9.68 12 -9 12 C-8.67 11.34 -8.34 10.68 -8 10 C-7.01 10.66 -6.02 11.32 -5 12 C-5 13.32 -5 14.64 -5 16 C-4.34 16 -3.68 16 -3 16 C-3 12.37 -3 8.74 -3 5 C-2.34 4.67 -1.68 4.34 -1 4 C-0.34786708 1.97536745 -0.34786708 1.97536745 0 0 Z " fill="#D0A75E" transform="translate(218,264)"/>
<path d="M0 0 C4.06999556 6.53665954 4.73218903 11.44911964 3 19 C2.34 19.99 1.68 20.98 1 22 C1 21.34 1 20.68 1 20 C0.34 20 -0.32 20 -1 20 C-1.66 16.7 -2.32 13.4 -3 10 C-5.52588702 12.36292656 -6.88820837 13.66462511 -8 17 C-8.66 17 -9.32 17 -10 17 C-10 20.96 -10 24.92 -10 29 C-13 28 -13 28 -14.1875 25.9375 C-15.82370679 20.02198315 -15.71333592 15.7988373 -12.9375 10.375 C-9.98469367 5.52095654 -6.05274628 0 0 0 Z " fill="#CEAC69" transform="translate(245,121)"/>
<path d="M0 0 C1.65 1.32 3.3 2.64 5 4 C3.93439037 9.46124937 1.28682237 11.96978518 -2.734375 15.484375 C-7.7055664 18.80993063 -12.37039783 19.25630386 -18.25 19.1875 C-20.08304687 19.17783203 -20.08304687 19.17783203 -21.953125 19.16796875 C-25 19 -25 19 -27 18 C-26.49202991 13.6822542 -25.80317221 9.96697886 -24 6 C-23.67 6 -23.34 6 -23 6 C-23 8.31 -23 10.62 -23 13 C-22.01 12.67 -21.02 12.34 -20 12 C-18.56145767 12.03014089 -17.12342914 12.09573942 -15.6875 12.1875 C-10.97270836 12.21042443 -8.57097078 11.24633707 -5 8 C-3.14513388 5.42870411 -1.52416848 2.77857263 0 0 Z " fill="#AD9264" transform="translate(299,119)"/>
<path d="M0 0 C1.65 0 3.3 0 5 0 C5 0.66 5 1.32 5 2 C6.16789063 2.34417969 6.16789063 2.34417969 7.359375 2.6953125 C10.65356106 4.3229133 11.05616409 5.46548559 12.25 8.875 C12.56453125 9.73867187 12.8790625 10.60234375 13.203125 11.4921875 C14.35736605 15.12465199 15.12663928 18.28361441 15.09765625 22.109375 C15.09443359 22.86347656 15.09121094 23.61757812 15.08789062 24.39453125 C15.07951172 25.17183594 15.07113281 25.94914062 15.0625 26.75 C15.05798828 27.54277344 15.05347656 28.33554687 15.04882812 29.15234375 C15.03708565 31.10159508 15.01915146 33.05080738 15 35 C14.01 35.495 14.01 35.495 13 36 C12.67 35.34 12.34 34.68 12 34 C10.68 34.66 9.36 35.32 8 36 C7.67 35.34 7.34 34.68 7 34 C7.66 34 8.32 34 9 34 C9.2165625 32.824375 9.2165625 32.824375 9.4375 31.625 C10 29 10 29 11 27 C10.34 27 9.68 27 9 27 C9 24.36 9 21.72 9 19 C8.34 19 7.68 19 7 19 C6.34956281 17.27255984 5.70485156 15.5429631 5.0625 13.8125 C4.52302734 12.36810547 4.52302734 12.36810547 3.97265625 10.89453125 C2.86734784 7.60523997 2 4.48274293 2 1 C1.34 0.67 0.68 0.34 0 0 Z " fill="#B09660" transform="translate(179,232)"/>
<path d="M0 0 C0.66 0 1.32 0 2 0 C2.50391754 8.06268062 1.51693692 14.28187749 -3.8125 20.5625 C-4.87009284 21.71286414 -5.93278034 22.85856123 -7 24 C-8.13069035 25.30760108 -9.25589396 26.6199709 -10.375 27.9375 C-11.25 28.95833333 -12.125 29.97916667 -13 31 C-13.66 30.67 -14.32 30.34 -15 30 C-13.68 28.68 -12.36 27.36 -11 26 C-11.598125 25.67 -12.19625 25.34 -12.8125 25 C-15.84125407 22.23085342 -17.17715317 19.00657193 -18 15 C-17.57421875 12.74609375 -17.57421875 12.74609375 -17 11 C-16.71125 11.804375 -16.4225 12.60875 -16.125 13.4375 C-15.26737432 16.1326468 -15.26737432 16.1326468 -13 17 C-13 13.04 -13 9.08 -13 5 C-12.67 5 -12.34 5 -12 5 C-11.34 8.63 -10.68 12.26 -10 16 C-9.2575 14.700625 -8.515 13.40125 -7.75 12.0625 C-5.53461538 8.18557692 -5.53461538 8.18557692 -2.828125 7.24609375 C-2.22484375 7.16488281 -1.6215625 7.08367187 -1 7 C-0.67 4.69 -0.34 2.38 0 0 Z " fill="#AB9060" transform="translate(248,133)"/>
<path d="M0 0 C5.48139024 10.29756321 7.20286467 22.41358299 6 34 C5.36517115 35.34878262 4.70263394 36.68526514 4 38 C3.98018066 37.42032471 3.96036133 36.84064941 3.93994141 36.2434082 C3.84427399 33.59934063 3.73476547 30.9560183 3.625 28.3125 C3.5940625 27.40048828 3.563125 26.48847656 3.53125 25.54882812 C3.33223046 20.98796369 3.14309878 17.13809725 1 13 C-0.70084819 18.32932432 -1.52013969 23.43109483 -2 29 C-2.33 29 -2.66 29 -3 29 C-3.03738281 28.18917969 -3.07476562 27.37835938 -3.11328125 26.54296875 C-3.56064472 19.00796443 -4.70857912 12.19131457 -7 5 C-2.25 0 -2.25 0 0 0 Z " fill="#BCA067" transform="translate(329,214)"/>
<path d="M0 0 C3.32649816 2.8926071 3.85918686 5.24058923 4.20532227 9.56542969 C4.24197998 10.50805664 4.2786377 11.45068359 4.31640625 12.421875 C4.35830078 13.44667969 4.40019531 14.47148437 4.44335938 15.52734375 C4.48267578 16.59082031 4.52199219 17.65429688 4.5625 18.75 C4.60568359 19.82894531 4.64886719 20.90789062 4.69335938 22.01953125 C4.79928989 24.67956428 4.90136421 27.33968812 5 30 C4.34 30 3.68 30 3 30 C2.67 31.32 2.34 32.64 2 34 C2 32.68 2 31.36 2 30 C1.34 30 0.68 30 0 30 C-0.33 30.99 -0.66 31.98 -1 33 C-1.33 33 -1.66 33 -2 33 C-2.95814272 23.52215583 -2.99141275 15.37055176 -1 6 C-0.65870879 4.00134259 -0.32331975 2.00164319 0 0 Z " fill="#CAA766" transform="translate(329,225)"/>
<path d="M0 0 C-1.1875 2.4375 -1.1875 2.4375 -3 5 C-5.6875 5.8125 -5.6875 5.8125 -8 6 C-7.67 6.66 -7.34 7.32 -7 8 C-12.36095333 9.12862175 -17.55306686 9.09688221 -23 9 C-23.33 6.69 -23.66 4.38 -24 2 C-16.69758451 -1.53342685 -7.80862983 -1.78482967 0 0 Z " fill="#BF9B60" transform="translate(337,182)"/>
<path d="M0 0 C4.13549857 1.37849952 5.58136522 4.29106811 7.9375 7.75 C8.7994299 8.99572777 9.66269146 10.24053529 10.52734375 11.484375 C10.94097168 12.08056641 11.35459961 12.67675781 11.78076172 13.29101562 C13.42972062 15.60233167 15.19685754 17.8077804 17 20 C16.67 20.66 16.34 21.32 16 22 C14.68 21.67 13.36 21.34 12 21 C12.33 21.99 12.66 22.98 13 24 C12.01 24 11.02 24 10 24 C8.66552734 22.53466797 8.66552734 22.53466797 7.3359375 20.4921875 C6.85382813 19.75226563 6.37171875 19.01234375 5.875 18.25 C5.1325 17.074375 5.1325 17.074375 4.375 15.875 C3.87226563 15.11445313 3.36953125 14.35390625 2.8515625 13.5703125 C0.17365225 9.39507609 -1.65967626 6.07244431 -2 1 C-1.34 0.67 -0.68 0.34 0 0 Z " fill="#A7905F" transform="translate(169,235)"/>
<path d="M0 0 C4.72582619 3.39290086 4.72582619 3.39290086 5.875 5.9375 C6.02674664 8.44131951 5.6063674 10.5745304 5 13 C3 12 1 11 -1 10 C-2.46939453 14.30322683 -3.77443263 18.62297367 -5 23 C-5.99 23 -6.98 23 -8 23 C-9.75914644 12.42600018 -9.75914644 12.42600018 -7.375 8.125 C-5.06798499 5.08945394 -2.80156389 2.56810023 0 0 Z " fill="#B99C5B" transform="translate(220,139)"/>
<path d="M0 0 C2.31 0 4.62 0 7 0 C7 1.65 7 3.3 7 5 C9.475 5.495 9.475 5.495 12 6 C12.06058594 6.81984375 12.12117188 7.6396875 12.18359375 8.484375 C12.30927734 10.10085937 12.30927734 10.10085937 12.4375 11.75 C12.51871094 12.81734375 12.59992188 13.8846875 12.68359375 14.984375 C12.94090773 17.43679962 13.31812218 19.63921291 14 22 C13.01 22 12.02 22 11 22 C11 23.65 11 25.3 11 27 C10.67 27 10.34 27 10 27 C10 21.06 10 15.12 10 9 C8.68 9.99 7.36 10.98 6 12 C6 10.68 6 9.36 6 8 C5.21625 8.33 4.4325 8.66 3.625 9 C1 10 1 10 -1 10 C-1 10.66 -1 11.32 -1 12 C-2.3125 13.625 -2.3125 13.625 -4 15 C-4.99 15 -5.98 15 -7 15 C-7 15.99 -7 16.98 -7 18 C-8.62449243 19.70779973 -10.29220027 21.37550757 -12 23 C-12.33 23.66 -12.66 24.32 -13 25 C-14.65 25 -16.3 25 -18 25 C-13.47008204 19.56266945 -8.65705784 14.53541069 -3.625 9.5625 C-2.88894531 8.83095703 -2.15289062 8.09941406 -1.39453125 7.34570312 C0.40136074 5.56147277 2.19955985 3.77963876 4 2 C2.68 1.34 1.36 0.68 0 0 Z " fill="#B69B64" transform="translate(330,188)"/>
<path d="M0 0 C0.2475 0.515625 0.495 1.03125 0.75 1.5625 C1.89803651 3.91295631 1.89803651 3.91295631 3.09375 5.6484375 C4.25 7.4375 4.25 7.4375 6 11 C5.25 13.9375 5.25 13.9375 4 16 C1.03 16 -1.94 16 -5 16 C-5 16.66 -5 17.32 -5 18 C-3.35 18.33 -1.7 18.66 0 19 C0 19.66 0 20.32 0 21 C1.32 21.33 2.64 21.66 4 22 C4 22.66 4 23.32 4 24 C5.32 24.33 6.64 24.66 8 25 C7.34 25.33 6.68 25.66 6 26 C-1.3445253 23.09608769 -7.93727945 19.02849175 -14 14 C-13.34 13.67 -12.68 13.34 -12 13 C-9.875 13.9375 -9.875 13.9375 -8 15 C-7.67 14.01 -7.34 13.02 -7 12 C-6.01 11.67 -5.02 11.34 -4 11 C-3.67 9.02 -3.34 7.04 -3 5 C-2.01 5 -1.02 5 0 5 C0 3.35 0 1.7 0 0 Z " fill="#BE9E5C" transform="translate(222,278)"/>
<path d="M0 0 C1.2065625 0.0309375 1.2065625 0.0309375 2.4375 0.0625 C5.54148155 9.24511208 6.61381491 15.39370614 2.3125 24.33984375 C2.02375 24.90832031 1.735 25.47679687 1.4375 26.0625 C-0.2125 25.7325 -1.8625 25.4025 -3.5625 25.0625 C-3.418125 24.52882812 -3.27375 23.99515625 -3.125 23.4453125 C-1.29463429 16.09842793 0.15691074 8.03639514 -3.5625 1.0625 C-2.5625 0.0625 -2.5625 0.0625 0 0 Z " fill="#CFA867" transform="translate(267.5625,107.9375)"/>
<path d="M0 0 C0.66 0 1.32 0 2 0 C2 1.32 2 2.64 2 4 C2.99 4 3.98 4 5 4 C5 4.66 5 5.32 5 6 C8.3 6.99 11.6 7.98 15 9 C15 11 15 11 13.5 12.6875 C9.85292326 14.60221529 6.91433642 13.94649938 3 13 C0.5 11.9375 0.5 11.9375 -1 11 C-1 10.34 -1 9.68 -1 9 C-2.32 8.67 -3.64 8.34 -5 8 C-5 7.34 -5 6.68 -5 6 C-6.65 5.67 -8.3 5.34 -10 5 C-10.33 4.01 -10.66 3.02 -11 2 C-7.7 2 -4.4 2 -1 2 C-0.67 1.34 -0.34 0.68 0 0 Z " fill="#CEA659" transform="translate(227,291)"/>
<path d="M0 0 C2.34437038 1.26235328 4.37551028 2.63236023 6.4375 4.3125 C6.1848068 7.72385826 5.20245524 8.53187511 2.625 10.9375 C-2.11317568 14.46790541 -2.11317568 14.46790541 -4.5625 15.3125 C-5.5525 14.9825 -6.5425 14.6525 -7.5625 14.3125 C-6.9025 14.3125 -6.2425 14.3125 -5.5625 14.3125 C-5.5625 13.6525 -5.5625 12.9925 -5.5625 12.3125 C-8.0375 11.3225 -8.0375 11.3225 -10.5625 10.3125 C-9.964375 10.02375 -9.36625 9.735 -8.75 9.4375 C-6.36922208 8.26507974 -6.36922208 8.26507974 -3.5625 6.3125 C-7.38767513 3.92176555 -11.15915524 3.75283448 -15.5625 3.3125 C-15.5625 2.9825 -15.5625 2.6525 -15.5625 2.3125 C-14.345625 2.18875 -13.12875 2.065 -11.875 1.9375 C-9.18064093 1.61967948 -7.3900674 1.23630885 -4.875 0.125 C-2.5625 -0.6875 -2.5625 -0.6875 0 0 Z " fill="#A98F53" transform="translate(256.5625,176.6875)"/>
<path d="M0 0 C0.66 0.99 1.32 1.98 2 3 C1.34 3 0.68 3 0 3 C-0.06058594 4.13695312 -0.12117187 5.27390625 -0.18359375 6.4453125 C-0.69810681 15.97156837 -1.28114441 25.48663449 -2 35 C-1.34 35 -0.68 35 0 35 C0.33 36.65 0.66 38.3 1 40 C0.34 40 -0.32 40 -1 40 C-1 39.01 -1 38.02 -1 37 C-1.99 37 -2.98 37 -4 37 C-4.80390144 9.60780287 -4.80390144 9.60780287 0 0 Z M3 7 C3.33 7 3.66 7 4 7 C4.93170358 13.06658119 5.03438552 18.75460887 4.6875 24.875 C4.63432617 26.15503906 4.63432617 26.15503906 4.58007812 27.4609375 C4.53689453 28.275625 4.49371094 29.0903125 4.44921875 29.9296875 C4.41143311 30.66429199 4.37364746 31.39889648 4.3347168 32.15576172 C4 34 4 34 2 36 C1.34 35.67 0.68 35.34 0 35 C0.99 25.76 1.98 16.52 3 7 Z " fill="#A98F5F" transform="translate(200,216)"/>
<path d="M0 0 C0 1.98 0 3.96 0 6 C-0.66 6 -1.32 6 -2 6 C-2 9.3 -2 12.6 -2 16 C-2.33 16 -2.66 16 -3 16 C-3.12846313 16.93851807 -3.12846313 16.93851807 -3.25952148 17.89599609 C-3.64853518 20.72284647 -4.0429495 23.54891732 -4.4375 26.375 C-4.57220703 27.35984375 -4.70691406 28.3446875 -4.84570312 29.359375 C-4.97783203 30.30039063 -5.10996094 31.24140625 -5.24609375 32.2109375 C-5.36654053 33.08024902 -5.4869873 33.94956055 -5.61108398 34.84521484 C-6 37 -6 37 -7 39 C-7.66 39 -8.32 39 -9 39 C-9.31366039 28.16129087 -8.36326269 17.7356937 -7 7 C-6.34 7 -5.68 7 -5 7 C-4.8453125 5.824375 -4.8453125 5.824375 -4.6875 4.625 C-4.00541465 2.02067414 -3.23533224 0 0 0 Z " fill="#CFA45A" transform="translate(207,212)"/>
<path d="M0 0 C-0.20625 0.94875 -0.4125 1.8975 -0.625 2.875 C-0.810625 4.421875 -0.810625 4.421875 -1 6 C-0.34 6.66 0.32 7.32 1 8 C-12.18231521 12.77620116 -24.08687613 13.263276 -38 13 C-38 12.34 -38 11.68 -38 11 C-37.35562988 10.98541748 -36.71125977 10.97083496 -36.04736328 10.95581055 C-33.07269801 10.88044526 -30.09904905 10.7840837 -27.125 10.6875 C-26.11179687 10.66494141 -25.09859375 10.64238281 -24.0546875 10.61914062 C-17.27525288 10.3801221 -11.38715692 9.29225801 -5 7 C-5 6.34 -5 5.68 -5 5 C-5.61746094 5.08378906 -6.23492187 5.16757812 -6.87109375 5.25390625 C-12.82453683 5.96976927 -18.06653189 5.86130989 -24 5 C-24 4.67 -24 4.34 -24 4 C-22.69675781 3.81824219 -22.69675781 3.81824219 -21.3671875 3.6328125 C-20.21476562 3.46523438 -19.06234375 3.29765625 -17.875 3.125 C-16.16957031 2.88136719 -16.16957031 2.88136719 -14.4296875 2.6328125 C-0.12169604 -0.00715859 -0.12169604 -0.00715859 0 0 Z " fill="#AC9361" transform="translate(288,297)"/>
<path d="M0 0 C0.99 0 1.98 0 3 0 C1.64763423 2.93879484 0.10057341 5.29232911 -2 7.75 C-2.515625 8.36359375 -3.03125 8.9771875 -3.5625 9.609375 C-5 11 -5 11 -7 11 C-7 11.66 -7 12.32 -7 13 C-7.66 13 -8.32 13 -9 13 C-9 13.66 -9 14.32 -9 15 C-9.66 15 -10.32 15 -11 15 C-11 15.66 -11 16.32 -11 17 C-12.32 17.33 -13.64 17.66 -15 18 C-15.33 17.34 -15.66 16.68 -16 16 C-15.01 16 -14.02 16 -13 16 C-13 14.35 -13 12.7 -13 11 C-13.66 11.66 -14.32 12.32 -15 13 C-16.98821313 13.39764263 -18.98944339 13.73775349 -21 14 C-20.34 13.01 -19.68 12.02 -19 11 C-18.34 11 -17.68 11 -17 11 C-17 10.34 -17 9.68 -17 9 C-16.34 9 -15.68 9 -15 9 C-14.773125 8.4225 -14.54625 7.845 -14.3125 7.25 C-12.66961977 4.4336339 -10.60466773 2.91922886 -8 1 C-9.20381448 3.49361571 -10.45428722 5.68143083 -12 8 C-10.02 6.68 -8.04 5.36 -6 4 C-5.67 4.66 -5.34 5.32 -5 6 C-4.34 4.68 -3.68 3.36 -3 2 C-2.01 2.33 -1.02 2.66 0 3 C0 2.01 0 1.02 0 0 Z " fill="#BE9E65" transform="translate(306,226)"/>
<path d="M0 0 C0.66 0.66 1.32 1.32 2 2 C1.67 2.66 1.34 3.32 1 4 C15.19 4.33 29.38 4.66 44 5 C44 5.33 44 5.66 44 6 C42.76435303 6.02505615 41.52870605 6.0501123 40.25561523 6.07592773 C35.65037514 6.17043852 31.04527061 6.27055089 26.44018555 6.37231445 C24.4509601 6.41549871 22.46170152 6.4571847 20.47241211 6.49731445 C17.60520463 6.55541898 14.7381614 6.61899555 11.87109375 6.68359375 C10.98852402 6.70030624 10.10595428 6.71701874 9.19664001 6.73423767 C4.37944551 6.84857197 -0.24572958 7.20809129 -5 8 C-5 7.01 -5 6.02 -5 5 C-5.99 5.33 -6.98 5.66 -8 6 C-8 5.34 -8 4.68 -8 4 C-9.98 4 -11.96 4 -14 4 C-9.48904502 0.32440705 -5.80497964 -1.8826961 0 0 Z " fill="#9F8754" transform="translate(245,242)"/>
<path d="M0 0 C0.33 0.66 0.66 1.32 1 2 C2.65249487 2.70105843 4.32367583 3.35800351 6 4 C7.17691516 4.65160198 8.35258055 5.30546374 9.52734375 5.9609375 C14.37011566 8.40364871 19.16144451 9.09044009 24.5 9.75 C25.4178125 9.87503906 26.335625 10.00007813 27.28125 10.12890625 C29.51946932 10.43199845 31.75854305 10.72205934 34 11 C34 11.33 34 11.66 34 12 C28.39 12 22.78 12 17 12 C16.67 12.99 16.34 13.98 16 15 C15.01 15 14.02 15 13 15 C13 15.66 13 16.32 13 17 C11.5608866 16.71640113 10.12374482 16.42278601 8.6875 16.125 C7.88699219 15.96257812 7.08648437 15.80015625 6.26171875 15.6328125 C4 15 4 15 1 13 C3.30596675 12.2587964 4.63462359 11.89723788 7 12.5625 C9.62473206 13.13666014 10.75722562 12.36168444 13 11 C13 10.34 13 9.68 13 9 C12.0925 8.87625 11.185 8.7525 10.25 8.625 C7.41029677 8.07890323 5.47409409 7.42736197 3 6 C3 5.34 3 4.68 3 4 C2.01 4 1.02 4 0 4 C0 2.68 0 1.36 0 0 Z " fill="#BC9E60" transform="translate(229,291)"/>
<path d="M0 0 C5.19209404 -0.21192221 9.126739 0.4087311 14 2 C13.01 3.485 13.01 3.485 12 5 C11.236875 4.649375 10.47375 4.29875 9.6875 3.9375 C6.95240621 2.67639116 6.95240621 2.67639116 4 4 C7.3 4.99 10.6 5.98 14 7 C14 7.33 14 7.66 14 8 C16.475 8.495 16.475 8.495 19 9 C19 9.99 19 10.98 19 12 C14.27934033 10.45730076 9.58335908 8.92205381 5 7 C5 9.31 5 11.62 5 14 C4.67 14 4.34 14 4 14 C4 12.35 4 10.7 4 9 C3.34 9 2.68 9 2 9 C1.67 11.97 1.34 14.94 1 18 C0.34 18 -0.32 18 -1 18 C-1.02698422 15.56242587 -1.04683099 13.12515085 -1.0625 10.6875 C-1.07087891 9.99720703 -1.07925781 9.30691406 -1.08789062 8.59570312 C-1.10307906 5.4516975 -1.00193327 3.00579981 0 0 Z " fill="#AD9563" transform="translate(150,214)"/>
<path d="M0 0 C0.66 0 1.32 0 2 0 C2.33 1.32 2.66 2.64 3 4 C3.639375 4.12375 4.27875 4.2475 4.9375 4.375 C5.618125 4.58125 6.29875 4.7875 7 5 C7.33 5.66 7.66 6.32 8 7 C8.61875 7.28875 9.2375 7.5775 9.875 7.875 C12.44820244 9.23728365 13.58252524 10.46346622 15 13 C14.6875 15.25 14.6875 15.25 14 17 C12.21875 17.6875 12.21875 17.6875 10 18 C5.01055977 14.67370651 1.43677652 9.38121481 -1 4 C-0.75 1.5625 -0.75 1.5625 0 0 Z " fill="#CBA963" transform="translate(192,269)"/>
<path d="M0 0 C0 0.99 0 1.98 0 3 C0.33 3.66 0.66 4.32 1 5 C1.598125 4.79375 2.19625 4.5875 2.8125 4.375 C5 4 5 4 8 6 C-2.18906606 12.70387244 -2.18906606 12.70387244 -9 13 C-9 10.37886292 -8.68707555 8.49064888 -8 6 C-8.99 5.67 -9.98 5.34 -11 5 C-10.37351562 4.72285156 -9.74703125 4.44570313 -9.1015625 4.16015625 C-8.28429687 3.79792969 -7.46703125 3.43570312 -6.625 3.0625 C-5.81289063 2.70285156 -5.00078125 2.34320313 -4.1640625 1.97265625 C-2.76316215 1.3430097 -1.37374716 0.68687358 0 0 Z " fill="#B6985A" transform="translate(296,291)"/>
<path d="M0 0 C1.21236328 0.01353516 1.21236328 0.01353516 2.44921875 0.02734375 C3.37154297 0.04474609 3.37154297 0.04474609 4.3125 0.0625 C4.3125 1.0525 4.3125 2.0425 4.3125 3.0625 C-0.6375 4.5475 -0.6375 4.5475 -5.6875 6.0625 C-5.0275 7.7125 -4.3675 9.3625 -3.6875 11.0625 C-6.6575 10.7325 -9.6275 10.4025 -12.6875 10.0625 C-13.0175 8.4125 -13.3475 6.7625 -13.6875 5.0625 C-8.94538047 1.79570655 -5.78484004 -0.08383826 0 0 Z " fill="#C49D5C" transform="translate(257.6875,157.9375)"/>
<path d="M0 0 C-0.99 0.495 -0.99 0.495 -2 1 C-3.13350534 3.01669827 -3.13350534 3.01669827 -4 5 C-4.99 5 -5.98 5 -7 5 C-7.66 6.65 -8.32 8.3 -9 10 C-11.64 10.33 -14.28 10.66 -17 11 C-17.33 9.68 -17.66 8.36 -18 7 C-17.34 7 -16.68 7 -16 7 C-15.773125 6.38125 -15.54625 5.7625 -15.3125 5.125 C-13.62070165 2.38589791 -12.00755839 1.94975528 -9 1 C-9 0.34 -9 -0.32 -9 -1 C-5.22102349 -2.0497157 -3.35080929 -2.10976881 0 0 Z " fill="#CFA861" transform="translate(313,286)"/>
<path d="M0 0 C0.33 0.99 0.66 1.98 1 3 C2.41702513 2.85769192 3.8336096 2.71099254 5.25 2.5625 C6.03890625 2.48128906 6.8278125 2.40007812 7.640625 2.31640625 C9.82364639 2.02365007 11.8773182 1.57935581 14 1 C14.12375 1.639375 14.2475 2.27875 14.375 2.9375 C14.58125 3.618125 14.7875 4.29875 15 5 C15.66 5.33 16.32 5.66 17 6 C15.35 6.66 13.7 7.32 12 8 C11.67 10.31 11.34 12.62 11 15 C10.34 14.67 9.68 14.34 9 14 C8.375 11.9375 8.375 11.9375 8 10 C7.01 10.495 7.01 10.495 6 11 C6 9.68 6 8.36 6 7 C5.401875 7.226875 4.80375 7.45375 4.1875 7.6875 C2 8 2 8 0.1875 6.875 C-1 5 -1 5 -0.6875 2.3125 C-0.460625 1.549375 -0.23375 0.78625 0 0 Z " fill="#907B54" transform="translate(254,137)"/>
<path d="M0 0 C0.98484375 0.00902344 1.9696875 0.01804687 2.984375 0.02734375 C4.10585938 0.04474609 4.10585938 0.04474609 5.25 0.0625 C6.50541557 3.82874671 5.62061958 5.43438934 4.25 9.0625 C2.6 8.4025 0.95 7.7425 -0.75 7.0625 C-0.75 6.0725 -0.75 5.0825 -0.75 4.0625 C-4.38 4.3925 -8.01 4.7225 -11.75 5.0625 C-12.41 4.0725 -13.07 3.0825 -13.75 2.0625 C-12.41666667 1.72916667 -11.08333333 1.39583333 -9.75 1.0625 C-9.1621875 0.8871875 -8.574375 0.711875 -7.96875 0.53125 C-5.26588629 -0.03977755 -2.76037148 -0.03286157 0 0 Z " fill="#C5A46A" transform="translate(300.75,113.9375)"/>
<path d="M0 0 C-0.99 0.66 -1.98 1.32 -3 2 C-3 2.66 -3 3.32 -3 4 C-2.34 4.33 -1.68 4.66 -1 5 C-3.64 5 -6.28 5 -9 5 C-9.66 6.32 -10.32 7.64 -11 9 C-8.702779 10.74271938 -6.40133271 12.39911152 -4 14 C-8.57134863 14.31168286 -10.49811776 13.89810944 -14 11 C-14.99 11 -15.98 11 -17 11 C-18.125 6.25 -18.125 6.25 -17 4 C-15.35965807 3.27095914 -13.68698082 2.61344757 -12 2 C-10.824375 1.443125 -10.824375 1.443125 -9.625 0.875 C-6.33329436 -0.22223521 -3.44580023 -0.13512942 0 0 Z M-10 2 C-8.515 2.99 -8.515 2.99 -7 4 C-7 3.34 -7 2.68 -7 2 C-7.99 2 -8.98 2 -10 2 Z " fill="#CDA761" transform="translate(283,140)"/>
<path d="M0 0 C0.99 0 1.98 0 3 0 C5 3.75 5 3.75 5 6 C5.66 6 6.32 6 7 6 C7 10.29 7 14.58 7 19 C6.34 19.33 5.68 19.66 5 20 C4.67 19.34 4.34 18.68 4 18 C2.02 18.99 2.02 18.99 0 20 C-0.33 19.34 -0.66 18.68 -1 18 C-0.34 18 0.32 18 1 18 C1.144375 17.21625 1.28875 16.4325 1.4375 15.625 C2 13 2 13 3 11 C2.34 11 1.68 11 1 11 C0.67 7.37 0.34 3.74 0 0 Z " fill="#D2AE68" transform="translate(187,248)"/>
<path d="M0 0 C0.33 0 0.66 0 1 0 C1 2.64 1 5.28 1 8 C-0.32 7.67 -1.64 7.34 -3 7 C-3 8.98 -3 10.96 -3 13 C-4.32 13 -5.64 13 -7 13 C-7 12.34 -7 11.68 -7 11 C-7.66 11 -8.32 11 -9 11 C-9 10.34 -9 9.68 -9 9 C-9.66 9 -10.32 9 -11 9 C-11.625 6.6875 -11.625 6.6875 -12 4 C-11.34 3.01 -10.68 2.02 -10 1 C-8.68 1.66 -7.36 2.32 -6 3 C-6 3.66 -6 4.32 -6 5 C-2.72226496 4.24849977 -2.72226496 4.24849977 -1 1 C-0.67 0.67 -0.34 0.34 0 0 Z " fill="#C8A565" transform="translate(208,187)"/>
<path d="M0 0 C2 1.375 2 1.375 4 4 C4.35791096 7.3580469 4.23115823 10.63536357 4 14 C3.67 14 3.34 14 3 14 C2.67 11.69 2.34 9.38 2 7 C-1.82669043 10.42388092 -3.72278474 13.00724943 -5 18 C-5.66 17.01 -6.32 16.02 -7 15 C-6.125 12.3125 -6.125 12.3125 -5 10 C-6.32 9.67 -7.64 9.34 -9 9 C-6.78310162 4.56620325 -4.22271781 2.53363068 0 0 Z " fill="#B69B64" transform="translate(263,110)"/>
<path d="M0 0 C1.53674273 2.99004241 2.90306293 6.01823885 4.1875 9.125 C4.55230469 9.99382812 4.91710937 10.86265625 5.29296875 11.7578125 C6 14 6 14 5 16 C4.34 16.99 3.68 17.98 3 19 C3.165 20.11375 3.33 21.2275 3.5 22.375 C4.01804371 26.13081692 3.70147135 27.69714386 2 31 C1.34 31 0.68 31 0 31 C0 30.34 0 29.68 0 29 C-0.66 28.67 -1.32 28.34 -2 28 C-1.01 27.34 -0.02 26.68 1 26 C0.21302675 22.58978257 -0.87119943 19.31114834 -2 16 C-0.68 15.01 0.64 14.02 2 13 C1.34 12.67 0.68 12.34 0 12 C-0.44921875 10.0390625 -0.44921875 10.0390625 -0.6875 7.625 C-0.77386719 6.83351563 -0.86023438 6.04203125 -0.94921875 5.2265625 C-1 3 -1 3 0 0 Z M-3 4 C-2.34 4.66 -1.68 5.32 -1 6 C-1.99 6 -2.98 6 -4 6 C-3.67 5.34 -3.34 4.68 -3 4 Z " fill="#BA9756" transform="translate(205,259)"/>
<path d="M0 0 C0.33 0 0.66 0 1 0 C1.13277344 0.77085937 1.26554688 1.54171875 1.40234375 2.3359375 C1.57894531 3.33882812 1.75554687 4.34171875 1.9375 5.375 C2.19853516 6.87160156 2.19853516 6.87160156 2.46484375 8.3984375 C2.87712062 10.96909656 2.87712062 10.96909656 4 13 C3.34 13 2.68 13 2 13 C2 13.99 2 14.98 2 16 C3.65 16 5.3 16 7 16 C5.6062718 20.43458973 3.39417765 22.87378374 0 26 C-0.66 25.67 -1.32 25.34 -2 25 C-0.68 23.68 0.64 22.36 2 21 C1.401875 20.67 0.80375 20.34 0.1875 20 C-2.84125407 17.23085342 -4.17715317 14.00657193 -5 10 C-4.57421875 7.74609375 -4.57421875 7.74609375 -4 6 C-3.71125 6.804375 -3.4225 7.60875 -3.125 8.4375 C-2.26737432 11.1326468 -2.26737432 11.1326468 0 12 C0 8.04 0 4.08 0 0 Z " fill="#A38B5F" transform="translate(235,138)"/>
<path d="M0 0 C0.4519779 10.72192025 -0.8851443 21.3540176 -2 32 C-2.66 32 -3.32 32 -4 32 C-3.85957505 28.49976144 -3.71166774 24.99987601 -3.5625 21.5 C-3.52318359 20.51773438 -3.48386719 19.53546875 -3.44335938 18.5234375 C-3.20239383 12.9626941 -2.78078831 7.51144691 -2 2 C-5.3 2.66 -8.6 3.32 -12 4 C-12 3.34 -12 2.68 -12 2 C-12.99 1.67 -13.98 1.34 -15 1 C-9.94997778 -0.03590199 -5.12583611 -0.10251672 0 0 Z " fill="#AE986F" transform="translate(351,179)"/>
<path d="M0 0 C2.69921875 0.14453125 2.69921875 0.14453125 5.6875 0.8125 C6.68136719 1.02519531 7.67523438 1.23789063 8.69921875 1.45703125 C9.83810547 1.72580078 9.83810547 1.72580078 11 2 C11.33 2.99 11.66 3.98 12 5 C13.65 4.67 15.3 4.34 17 4 C17 4.99 17 5.98 17 7 C15.68 7 14.36 7 13 7 C13 7.99 13 8.98 13 10 C12.34 10 11.68 10 11 10 C11 10.66 11 11.32 11 12 C10.01 12 9.02 12 8 12 C8.33 10.02 8.66 8.04 9 6 C3.06 4.515 3.06 4.515 -3 3 C-2.01 2.01 -1.02 1.02 0 0 Z " fill="#C7A463" transform="translate(231,195)"/>
<path d="M0 0 C0.99 0.33 1.98 0.66 3 1 C2.34 1 1.68 1 1 1 C1 6.94 1 12.88 1 19 C-0.32 19 -1.64 19 -3 19 C-5.10275161 15.60014874 -5.12715391 13.3054 -4.6875 9.375 C-4.58824219 8.41335937 -4.48898438 7.45171875 -4.38671875 6.4609375 C-4 4 -4 4 -3 2 C-2.34 2 -1.68 2 -1 2 C-0.67 1.34 -0.34 0.68 0 0 Z " fill="#C09E60" transform="translate(155,221)"/>
<path d="M0 0 C0.99 0 1.98 0 3 0 C4.35439668 2.70879335 4.06501451 5.00933268 4 8 C3.01 8.495 3.01 8.495 2 9 C1.67 8.67 1.34 8.34 1 8 C0.34 8 -0.32 8 -1 8 C-1.10957031 8.63808594 -1.21914062 9.27617187 -1.33203125 9.93359375 C-1.49058594 10.75988281 -1.64914063 11.58617187 -1.8125 12.4375 C-1.96332031 13.26121094 -2.11414063 14.08492187 -2.26953125 14.93359375 C-2.51058594 15.61550781 -2.75164062 16.29742187 -3 17 C-3.99 17.33 -4.98 17.66 -6 18 C-6.73323796 20.01508358 -6.73323796 20.01508358 -7 22 C-7.33 22 -7.66 22 -8 22 C-8.33640736 17.10015368 -7.42823802 14.18392854 -5.125 9.875 C-4.59132812 8.86179688 -4.05765625 7.84859375 -3.5078125 6.8046875 C-3.01023438 5.87914062 -2.51265625 4.95359375 -2 4 C-1.32806849 2.66931211 -0.6589782 1.33714994 0 0 Z " fill="#AF955E" transform="translate(209,196)"/>
<path d="M0 0 C0 1.32 0 2.64 0 4 C-0.99 4 -1.98 4 -3 4 C-3 4.66 -3 5.32 -3 6 C-4.32 6.33 -5.64 6.66 -7 7 C-7 7.66 -7 8.32 -7 9 C-7.928125 9.3403125 -7.928125 9.3403125 -8.875 9.6875 C-11.61410209 11.37929835 -12.05024472 12.99244161 -13 16 C-14.65 16 -16.3 16 -18 16 C-17.1875 13.5625 -17.1875 13.5625 -16 11 C-15.01 10.67 -14.02 10.34 -13 10 C-13 9.01 -13 8.02 -13 7 C-12.01 7 -11.02 7 -10 7 C-9.67 6.01 -9.34 5.02 -9 4 C-8.34 4 -7.68 4 -7 4 C-7 3.34 -7 2.68 -7 2 C-2.25 0 -2.25 0 0 0 Z " fill="#CFA55C" transform="translate(336,196)"/>
<path d="M0 0 C0.66 0 1.32 0 2 0 C2.33 2.64 2.66 5.28 3 8 C3.33 8 3.66 8 4 8 C4.33 6.35 4.66 4.7 5 3 C5.33 3 5.66 3 6 3 C6.66 6.96 7.32 10.92 8 15 C7.01 15.66 6.02 16.32 5 17 C5.33 18.65 5.66 20.3 6 22 C2.92704472 19.36603833 1.37937052 16.80969001 0 13 C-0.24831177 8.65454399 -0.17415288 4.34737186 0 0 Z " fill="#A48E5D" transform="translate(210,153)"/>
<path d="M0 0 C1.65322266 0.01740234 1.65322266 0.01740234 3.33984375 0.03515625 C4.99693359 0.04869141 4.99693359 0.04869141 6.6875 0.0625 C7.54214844 0.07410156 8.39679688 0.08570313 9.27734375 0.09765625 C7.27734375 3.09765625 7.27734375 3.09765625 4.65234375 3.78515625 C3.86859375 3.88828125 3.08484375 3.99140625 2.27734375 4.09765625 C4.75234375 5.08765625 4.75234375 5.08765625 7.27734375 6.09765625 C7.27734375 6.75765625 7.27734375 7.41765625 7.27734375 8.09765625 C3.97734375 8.09765625 0.67734375 8.09765625 -2.72265625 8.09765625 C-3.10328846 5.77157055 -3.4353557 3.43710361 -3.72265625 1.09765625 C-2.72265625 0.09765625 -2.72265625 0.09765625 0 0 Z " fill="#CDAE6B" transform="translate(316.72265625,182.90234375)"/>
<path d="M0 0 C4.875 1.875 4.875 1.875 6 3 C6.99 2.67 7.98 2.34 9 2 C7.44396229 5.81936528 5.04395069 8.26044438 2 11 C1.34 11 0.68 11 0 11 C0 11.66 0 12.32 0 13 C-1.98 13.99 -3.96 14.98 -6 16 C-5.814375 15.38125 -5.62875 14.7625 -5.4375 14.125 C-4.76313824 11.95839822 -4.76313824 11.95839822 -6 10 C-5.236875 10.0825 -4.47375 10.165 -3.6875 10.25 C-0.85416667 10.29166667 -0.85416667 10.29166667 0.8125 8 C1.204375 7.34 1.59625 6.68 2 6 C1.01 5.67 0.02 5.34 -1 5 C-1.99 4.67 -2.98 4.34 -4 4 C-2.68 2.68 -1.36 1.36 0 0 Z " fill="#B3995F" transform="translate(310,280)"/>
<path d="M0 0 C0.33 0.99 0.66 1.98 1 3 C2.32 3 3.64 3 5 3 C3.56036361 6.35915158 1.87583411 8.71624938 -1 11 C-3.25 10.75 -3.25 10.75 -5 10 C-5.66 7.69 -6.32 5.38 -7 3 C-4.69 2.01 -2.38 1.02 0 0 Z " fill="#AE946B" transform="translate(221,166)"/>
<path d="M0 0 C2.375 0.375 2.375 0.375 5 1 C6.32 1 7.64 1 9 1 C9.66 1 10.32 1 11 1 C11.33 1.66 11.66 2.32 12 3 C13.65051288 4.11634152 13.65051288 4.11634152 15.5625 5.125 C16.696875 5.74375 17.83125 6.3625 19 7 C19 8.32 19 9.64 19 11 C17.35 10.34 15.7 9.68 14 9 C14 8.67 14 8.34 14 8 C13.2575 7.87625 12.515 7.7525 11.75 7.625 C9.12981291 7.02950293 7.35679325 6.24771407 5 5 C2.67712661 3.97431565 0.33867669 2.98944014 -2 2 C-1.34 1.34 -0.68 0.68 0 0 Z " fill="#CEA85E" transform="translate(154,216)"/>
<path d="M0 0 C0.66 0.33 1.32 0.66 2 1 C1.67 3.64 1.34 6.28 1 9 C1.66 9.33 2.32 9.66 3 10 C3.75 11.875 3.75 11.875 4 14 C3.01 15.485 3.01 15.485 2 17 C0.74335022 14.09399739 0 12.20395416 0 9 C-0.66 9 -1.32 9 -2 9 C-2.33 10.65 -2.66 12.3 -3 14 C-3.66 14 -4.32 14 -5 14 C-5 17.63 -5 21.26 -5 25 C-5.66 25 -6.32 25 -7 25 C-6.96561401 15.45788915 -4.427917 8.39543896 0 0 Z " fill="#A38A5B" transform="translate(220,255)"/>
<path d="M0 0 C2 1 2 1 4 4 C3.01 5.485 3.01 5.485 2 7 C-1.31885028 12.62761569 -2.56113963 18.69350562 -4 25 C-4.33 25 -4.66 25 -5 25 C-5 22.03 -5 19.06 -5 16 C-4.34 16 -3.68 16 -3 16 C-3.09539062 15.16855469 -3.19078125 14.33710938 -3.2890625 13.48046875 C-3.39992187 12.39378906 -3.51078125 11.30710938 -3.625 10.1875 C-3.74101562 9.10855469 -3.85703125 8.02960938 -3.9765625 6.91796875 C-4 4 -4 4 -2 1 C-1.34 1.33 -0.68 1.66 0 2 C0 1.34 0 0.68 0 0 Z " fill="#B2955C" transform="translate(210,202)"/>
<path d="M0 0 C1.65 0 3.3 0 5 0 C8.10398155 9.18261208 9.17631491 15.33120614 4.875 24.27734375 C4.58625 24.84582031 4.2975 25.41429687 4 26 C3.67 26 3.34 26 3 26 C3 24.02 3 22.04 3 20 C3.66 20 4.32 20 5 20 C4.67 19.01 4.34 18.02 4 17 C4.66 17 5.32 17 6 17 C6 15.68 6 14.36 6 13 C5.34 13 4.68 13 4 13 C4 9.37 4 5.74 4 2 C2.35 2 0.7 2 -1 2 C-0.67 1.34 -0.34 0.68 0 0 Z " fill="#9F8C5F" transform="translate(265,108)"/>
<path d="M0 0 C2.1105164 0.95107666 4.13780792 1.94621546 6.140625 3.10546875 C3.140625 5.10546875 3.140625 5.10546875 1.140625 5.10546875 C0.810625 4.44546875 0.480625 3.78546875 0.140625 3.10546875 C-2.36848383 2.37469539 -2.36848383 2.37469539 -5.296875 1.91796875 C-6.28558594 1.73878906 -7.27429688 1.55960938 -8.29296875 1.375 C-10.84533322 0.87420246 -10.84533322 0.87420246 -12.859375 2.10546875 C-10.549375 2.76546875 -8.239375 3.42546875 -5.859375 4.10546875 C-5.859375 4.43546875 -5.859375 4.76546875 -5.859375 5.10546875 C-9.159375 5.43546875 -12.459375 5.76546875 -15.859375 6.10546875 C-15.859375 4.45546875 -15.859375 2.80546875 -15.859375 1.10546875 C-16.519375 0.77546875 -17.179375 0.44546875 -17.859375 0.10546875 C-12.82051791 -2.41395979 -5.23357553 -1.63727978 0 0 Z " fill="#A89167" transform="translate(241.859375,194.89453125)"/>
<path d="M0 0 C0.93423645 3.01031744 1.04449911 3.86650268 0 7 C0.99 7.66 1.98 8.32 3 9 C0.48169253 12.12270126 -0.7261549 12.94523098 -4.75 13.75 C-6.35875 13.87375 -6.35875 13.87375 -8 14 C-9.15941038 10.52176885 -8.70820884 8.54104422 -8 5 C-7.01 6.485 -7.01 6.485 -6 8 C-4.00136244 7.42055068 -4.00136244 7.42055068 -2 6 C-0.70768358 2.95800528 -0.70768358 2.95800528 0 0 Z " fill="#B6975D" transform="translate(265,126)"/>
<path d="M0 0 C1.32 0.66 2.64 1.32 4 2 C4 2.99 4 3.98 4 5 C5.32 4.34 6.64 3.68 8 3 C7.61328125 3.42410156 7.2265625 3.84820312 6.828125 4.28515625 C3.2605903 8.30304806 0.51826571 12.25403771 -2 17 C-2.89868727 14.48367565 -3.1616905 13.39267692 -2.125 10.875 C-1.75375 10.25625 -1.3825 9.6375 -1 9 C-0.67 8.34 -0.34 7.68 0 7 C-1.32 7 -2.64 7 -4 7 C-4 7.66 -4 8.32 -4 9 C-4.66 8.67 -5.32 8.34 -6 8 C-4.02 5.36 -2.04 2.72 0 0 Z " fill="#A78F5C" transform="translate(221,177)"/>
<path d="M0 0 C0.928125 0.495 1.85625 0.99 2.8125 1.5 C-0.24013664 2.48120464 -2.13486336 2.48120464 -5.1875 1.5 C-5.1875 2.16 -5.1875 2.82 -5.1875 3.5 C-3.8675 4.16 -2.5475 4.82 -1.1875 5.5 C-3.82000388 6.81625194 -4.98929056 6.24813658 -7.8125 5.5625 C-8.62976563 5.36785156 -9.44703125 5.17320312 -10.2890625 4.97265625 C-10.91554688 4.81667969 -11.54203125 4.66070312 -12.1875 4.5 C-10.8675 4.17 -9.5475 3.84 -8.1875 3.5 C-8.1875 2.51 -8.1875 1.52 -8.1875 0.5 C-11.1575 0.5 -14.1275 0.5 -17.1875 0.5 C-17.5175 1.16 -17.8475 1.82 -18.1875 2.5 C-18.8475 1.84 -19.5075 1.18 -20.1875 0.5 C-13.75874722 -2.41266597 -6.56707481 -2.82210343 0 0 Z " fill="#97855C" transform="translate(270.1875,157.5)"/>
<path d="M0 0 C0.66 0.66 1.32 1.32 2 2 C1.01 3.485 1.01 3.485 0 5 C-0.29991069 7.58885171 -0.50865225 10.09149082 -0.625 12.6875 C-0.66367188 13.38939453 -0.70234375 14.09128906 -0.7421875 14.81445312 C-0.8362334 16.54254655 -0.9191968 18.27123675 -1 20 C-4 19 -4 19 -5.25 16.875 C-6.18252152 13.30033417 -5.70486964 10.59483517 -5 7 C-4.34 7 -3.68 7 -3 7 C-3 6.01 -3 5.02 -3 4 C-2.34 4 -1.68 4 -1 4 C-0.67 2.68 -0.34 1.36 0 0 Z " fill="#D4AD66" transform="translate(236,130)"/>
<path d="M0 0 C1.65 1.32 3.3 2.64 5 4 C3.375 9.75 3.375 9.75 0 12 C0 9 0 9 1 7 C-2.24849977 8.72226496 -2.24849977 8.72226496 -3 12 C-5.64 12.33 -8.28 12.66 -11 13 C-10 11 -10 11 -7.75 9.875 C-3.96349212 7.29329008 -2.20366384 3.94784032 0 0 Z " fill="#AD945D" transform="translate(299,119)"/>
<path d="M0 0 C0.99 0.66 1.98 1.32 3 2 C2.7473068 5.41135826 1.76495524 6.21937511 -0.8125 8.625 C-5.55067568 12.15540541 -5.55067568 12.15540541 -8 13 C-8.99 12.67 -9.98 12.34 -11 12 C-10.34 12 -9.68 12 -9 12 C-9 11.34 -9 10.68 -9 10 C-11.475 9.01 -11.475 9.01 -14 8 C-13.443125 7.731875 -12.88625 7.46375 -12.3125 7.1875 C-9.80287477 5.89877353 -7.40665764 4.47073522 -5 3 C-5.33 4.32 -5.66 5.64 -6 7 C-4.02 6.67 -2.04 6.34 0 6 C0 4.02 0 2.04 0 0 Z " fill="#A18954" transform="translate(260,179)"/>
<path d="M0 0 C0.27734375 2.26171875 0.27734375 2.26171875 0 5 C-1.93359375 7.01953125 -1.93359375 7.01953125 -4.4375 8.8125 C-5.26121094 9.41707031 -6.08492187 10.02164063 -6.93359375 10.64453125 C-9 12 -9 12 -10 12 C-10.48756219 5.66169154 -10.48756219 5.66169154 -8.25 2.625 C-5.43415938 0.59133733 -3.43126994 0 0 0 Z " fill="#C6A76C" transform="translate(260,144)"/>
<path d="M0 0 C12.66970387 -0.18451025 12.66970387 -0.18451025 18 1 C16.68 1.33 15.36 1.66 14 2 C14 2.66 14 3.32 14 4 C11.47524538 5.26237731 9.68799534 5.09856404 6.875 5.0625 C5.96492187 5.05347656 5.05484375 5.04445312 4.1171875 5.03515625 C3.41851562 5.02355469 2.71984375 5.01195312 2 5 C2 3.68 2 2.36 2 1 C1.34 0.67 0.68 0.34 0 0 Z " fill="#CBA868" transform="translate(237,187)"/>
<path d="M0 0 C1.62490954 -0.02698189 3.24994633 -0.04638757 4.875 -0.0625 C5.77992188 -0.07410156 6.68484375 -0.08570313 7.6171875 -0.09765625 C10 0 10 0 12 1 C12 1.99 12 2.98 12 4 C9.58525383 4.53160457 7.16891893 5.05054766 4.75 5.5625 C4.06808594 5.71396484 3.38617188 5.86542969 2.68359375 6.02148438 C-0.81769038 6.75233495 -3.60298173 7.32203546 -7 6 C-3.48812804 3.59185923 -1.27343092 2.63370592 3 3 C3 2.34 3 1.68 3 1 C2.01 0.67 1.02 0.34 0 0 Z M-4 1 C-3.01 1 -2.02 1 -1 1 C-1.33 1.66 -1.66 2.32 -2 3 C-2.66 2.34 -3.32 1.68 -4 1 Z " fill="#C5A868" transform="translate(277,141)"/>
<path d="M0 0 C-0.33 0.66 -0.66 1.32 -1 2 C-5.95 2 -10.9 2 -16 2 C-16.33 2.66 -16.66 3.32 -17 4 C-17.33 4.33 -17.66 4.66 -18 5 C-17.34 5.66 -16.68 6.32 -16 7 C-17.65 7.66 -19.3 8.32 -21 9 C-21.12375 8.195625 -21.2475 7.39125 -21.375 6.5625 C-21.684375 5.2940625 -21.684375 5.2940625 -22 4 C-22.66 3.67 -23.32 3.34 -24 3 C-15.99178716 -1.60472239 -8.83743862 -1.17711785 0 0 Z " fill="#A99571" transform="translate(307,113)"/>
<path d="M0 0 C3.706983 3.22346348 3.88450738 5.70648268 4.3125 10.5 C3.9431268 14.63697986 2.97968586 15.32004585 0 18 C-1.33257403 5.33029613 -1.33257403 5.33029613 0 0 Z " fill="#CDA358" transform="translate(329,225)"/>
<path d="M0 0 C0.33 0.99 0.66 1.98 1 3 C1.66 3 2.32 3 3 3 C3.33 4.32 3.66 5.64 4 7 C4.99 6.67 5.98 6.34 7 6 C5.375 11.75 5.375 11.75 2 14 C2 13.01 2 12.02 2 11 C1.01 10.67 0.02 10.34 -1 10 C-2.23076923 4.58461538 -2.23076923 4.58461538 -1.0625 1.625 C-0.5365625 0.820625 -0.5365625 0.820625 0 0 Z " fill="#B08F55" transform="translate(322,262)"/>
<path d="M0 0 C0.598125 0.350625 1.19625 0.70125 1.8125 1.0625 C0.8125 4.0625 0.8125 4.0625 -1.1875 5.0625 C-1.1875 5.7225 -1.1875 6.3825 -1.1875 7.0625 C-2.1775 7.0625 -3.1675 7.0625 -4.1875 7.0625 C-3.98125 7.84625 -3.775 8.63 -3.5625 9.4375 C-3.376875 10.736875 -3.376875 10.736875 -3.1875 12.0625 C-3.8475 12.7225 -4.5075 13.3825 -5.1875 14.0625 C-6.51974462 10.06576615 -6.32192113 6.22955497 -6.1875 2.0625 C-4.66896708 -0.97456585 -3.05066334 -1.30742714 0 0 Z " fill="#D0AA66" transform="translate(227.1875,253.9375)"/>
<path d="M0 0 C0.14285714 8.57142857 0.14285714 8.57142857 -1 12 C-2.32 12 -3.64 12 -5 12 C-6.125 8.25 -6.125 8.25 -5 6 C-5.66 5.67 -6.32 5.34 -7 5 C-1.125 0 -1.125 0 0 0 Z " fill="#AA925A" transform="translate(250,149)"/>
<path d="M0 0 C1.32 0.33 2.64 0.66 4 1 C4.66 0.67 5.32 0.34 6 0 C5.88570603 1.77155654 5.75816963 3.54226229 5.625 5.3125 C5.55539063 6.29863281 5.48578125 7.28476563 5.4140625 8.30078125 C5 11 5 11 3 14 C3 13.34 3 12.68 3 12 C2.34 12 1.68 12 1 12 C0.67 8.04 0.34 4.08 0 0 Z " fill="#BE9F6B" transform="translate(243,129)"/>
<path d="M0 0 C0.56203125 0.31710938 1.1240625 0.63421875 1.703125 0.9609375 C4.15196317 2.06874525 6.08387855 2.38975399 8.75 2.625 C9.54921875 2.69976562 10.3484375 2.77453125 11.171875 2.8515625 C11.77515625 2.90054688 12.3784375 2.94953125 13 3 C13 3.33 13 3.66 13 4 C11.56359829 4.19573608 10.12580496 4.38127816 8.6875 4.5625 C7.88699219 4.66691406 7.08648437 4.77132812 6.26171875 4.87890625 C4 5 4 5 1 4 C1 4.99 1 5.98 1 7 C2.98 6.67 4.96 6.34 7 6 C7 6.99 7 7.98 7 9 C0.83543524 8.62257767 -2.17375515 6.84129692 -7 3 C-4.53721199 1.768606 -2.7204945 1.92840804 0 2 C0 1.34 0 0.68 0 0 Z " fill="#9D8958" transform="translate(253,166)"/>
<path d="M0 0 C0.66 0 1.32 0 2 0 C0.54763948 6.41459227 0.54763948 6.41459227 -1.8125 8.9375 C-4.38479331 10.18689961 -6.17438742 10.23546771 -9 10 C-9.33 8.68 -9.66 7.36 -10 6 C-7.29120665 4.64560332 -4.99066732 4.93498549 -2 5 C-1.855625 4.360625 -1.71125 3.72125 -1.5625 3.0625 C-1 1 -1 1 0 0 Z " fill="#C2A563" transform="translate(298,126)"/>
<path d="M0 0 C0.33 0.66 0.66 1.32 1 2 C1.66 2.33 2.32 2.66 3 3 C2.34 3 1.68 3 1 3 C1 3.99 1 4.98 1 6 C0.01 6 -0.98 6 -2 6 C-2.66 7.32 -3.32 8.64 -4 10 C-4.66 9.34 -5.32 8.68 -6 8 C-6.45375 8.495 -6.9075 8.99 -7.375 9.5 C-9 11 -9 11 -11 11 C-9.55922954 7.63820226 -7.75249979 5.40843732 -5 3 C-4.34 3 -3.68 3 -3 3 C-1.37485532 1.54166642 -1.37485532 1.54166642 0 0 Z " fill="#CBA865" transform="translate(305,223)"/>
<path d="M0 0 C0.99 0 1.98 0 3 0 C3 1.98 3 3.96 3 6 C1.02 6.99 1.02 6.99 -1 8 C-1 7.34 -1 6.68 -1 6 C-1.66 6 -2.32 6 -3 6 C-3 7.32 -3 8.64 -3 10 C-4.98 10.33 -6.96 10.66 -9 11 C-9 10.34 -9 9.68 -9 9 C-7.52230276 7.75216678 -6.04028027 6.50853745 -4.5234375 5.30859375 C-2.83537337 3.95949113 -2.83537337 3.95949113 -1.3125 1.6875 C-0.6628125 0.8521875 -0.6628125 0.8521875 0 0 Z " fill="#C7A569" transform="translate(242,155)"/>
<path d="M0 0 C0.33 0.99 0.66 1.98 1 3 C2.65 3.33 4.3 3.66 6 4 C6.33 3.01 6.66 2.02 7 1 C8.32 2.65 9.64 4.3 11 6 C10.67 6.66 10.34 7.32 10 8 C8.68 7.67 7.36 7.34 6 7 C6.33 7.99 6.66 8.98 7 10 C6.01 10 5.02 10 4 10 C2.35 7.03 0.7 4.06 -1 1 C-0.67 0.67 -0.34 0.34 0 0 Z " fill="#A8905B" transform="translate(175,249)"/>
<path d="M0 0 C0.99 0.33 1.98 0.66 3 1 C2.7589852 7.14587738 2.7589852 7.14587738 0.59765625 9.578125 C-0.88046971 10.78844931 -2.43647953 11.90220903 -4 13 C-4.66666667 11 -5.33333333 9 -6 7 C-5.01 7 -4.02 7 -3 7 C-3 6.34 -3 5.68 -3 5 C-2.34 5 -1.68 5 -1 5 C-0.67 3.35 -0.34 1.7 0 0 Z " fill="#CAA666" transform="translate(228,170)"/>
<path d="M0 0 C4.18876056 0.24165926 6.36669066 0.41418886 9.5 3.3125 C11 6 11 6 10.9375 8.25 C10 10 10 10 7 11 C7 10.01 7 9.02 7 8 C6.01 7.67 5.02 7.34 4 7 C3.67 6.01 3.34 5.02 3 4 C3.66 4 4.32 4 5 4 C5 3.34 5 2.68 5 2 C3.68 2.33 2.36 2.66 1 3 C0.67 2.01 0.34 1.02 0 0 Z " fill="#CDA55A" transform="translate(196,276)"/>
<path d="M0 0 C0.99 0.495 0.99 0.495 2 1 C2 1.66 2 2.32 2 3 C2.8971875 2.6596875 2.8971875 2.6596875 3.8125 2.3125 C4.8953125 2.1578125 4.8953125 2.1578125 6 2 C7 3 8 4 9 5 C11.30988315 5.74386068 13.64315944 6.42190703 16 7 C16 7.66 16 8.32 16 9 C13.03 8.67 10.06 8.34 7 8 C7 7.34 7 6.68 7 6 C4.03 5.505 4.03 5.505 1 5 C0.67 3.35 0.34 1.7 0 0 Z " fill="#D1A85F" transform="translate(264,148)"/>
<path d="M0 0 C0.33 0 0.66 0 1 0 C1.66 3.63 2.32 7.26 3 11 C1.02 11.99 1.02 11.99 -1 13 C-0.67 13.99 -0.34 14.98 0 16 C-0.66 16.66 -1.32 17.32 -2 18 C-5.125 11.375 -5.125 11.375 -4 8 C-4 8.66 -4 9.32 -4 10 C-3.34 10 -2.68 10 -2 10 C-1.34 6.7 -0.68 3.4 0 0 Z " fill="#A6925D" transform="translate(156,230)"/>
<path d="M0 0 C0.66 0 1.32 0 2 0 C2 0.99 2 1.98 2 3 C3.10859375 3.12117187 4.2171875 3.24234375 5.359375 3.3671875 C6.82296234 3.53606296 8.28650157 3.70535572 9.75 3.875 C10.47960937 3.95363281 11.20921875 4.03226563 11.9609375 4.11328125 C15.66777257 4.55136176 18.80452172 4.9986215 22 7 C19.62429457 7.0816082 17.25144159 7.14077222 14.875 7.1875 C14.20984375 7.21263672 13.5446875 7.23777344 12.859375 7.26367188 C8.14200743 7.33304493 4.98309217 6.52586332 1 4 C0.125 1.8125 0.125 1.8125 0 0 Z " fill="#BBA573" transform="translate(213,206)"/>
<path d="M0 0 C3.465 1.98 3.465 1.98 7 4 C5.02 4.99 5.02 4.99 3 6 C3 6.66 3 7.32 3 8 C4.32 8 5.64 8 7 8 C6.67 8.66 6.34 9.32 6 10 C1.28093812 10 -0.27037031 8.71245796 -4 6 C-2 5 -2 5 1 5 C1.33 4.01 1.66 3.02 2 2 C1.34 2 0.68 2 0 2 C0 1.34 0 0.68 0 0 Z " fill="#A78F5A" transform="translate(170,256)"/>
<path d="M0 0 C0.99 0.33 1.98 0.66 3 1 C-0.96 4.96 -4.92 8.92 -9 13 C-10 10 -10 10 -8.75 7.3125 C-8.1725 6.549375 -7.595 5.78625 -7 5 C-6.01 5 -5.02 5 -4 5 C-4 4.34 -4 3.68 -4 3 C-2.68 2.67 -1.36 2.34 0 2 C0 1.34 0 0.68 0 0 Z " fill="#AB945B" transform="translate(333,200)"/>
<path d="M0 0 C3.0625 0.1875 3.0625 0.1875 6.0625 1.1875 C5.7325 2.5075 5.4025 3.8275 5.0625 5.1875 C2.6875 5.8125 2.6875 5.8125 0.0625 6.1875 C-0.5975 5.5275 -1.2575 4.8675 -1.9375 4.1875 C-2.9275 3.5275 -3.9175 2.8675 -4.9375 2.1875 C-2.9375 0.1875 -2.9375 0.1875 0 0 Z " fill="#C9A562" transform="translate(233.9375,245.8125)"/>
<path d="M0 0 C-1.55500981 3.81684226 -4.03595495 6.19195732 -7 9 C-7.99 8.67 -8.98 8.34 -10 8 C-8.14082741 2.26755117 -6.18031831 0 0 0 Z " fill="#C1A267" transform="translate(323,212)"/>
<path d="M0 0 C1.32 0 2.64 0 4 0 C4 0.66 4 1.32 4 2 C6.97 2.33 9.94 2.66 13 3 C13 2.34 13 1.68 13 1 C13.99 1.33 14.98 1.66 16 2 C15.67 2.33 15.34 2.66 15 3 C15.99 3.33 16.98 3.66 18 4 C18 4.66 18 5.32 18 6 C10.89945397 5.74319906 5.90244471 5.06612857 0 1 C0 0.67 0 0.34 0 0 Z " fill="#A9935D" transform="translate(267,154)"/>
<path d="M0 0 C1.65 0 3.3 0 5 0 C4.54965877 1.62723299 4.08944646 3.25173664 3.625 4.875 C3.36976563 5.77992187 3.11453125 6.68484375 2.8515625 7.6171875 C2 10 2 10 0 12 C-1.88059033 10.11940967 -1.12361218 7.50109962 -1.1328125 5.0078125 C-1 3 -1 3 0 0 Z " fill="#CAA668" transform="translate(253,120)"/>
<path d="M0 0 C4.29 0 8.58 0 13 0 C13.33 0.66 13.66 1.32 14 2 C10.535 3.485 10.535 3.485 7 5 C6.67 4.01 6.34 3.02 6 2 C4.02 2.33 2.04 2.66 0 3 C0 2.01 0 1.02 0 0 Z " fill="#D3AC6A" transform="translate(254,170)"/>
<path d="M0 0 C0.99 0 1.98 0 3 0 C4.19287411 3.87684087 5 6.91621923 5 11 C4.34 11 3.68 11 3 11 C1.61767557 9.37373596 0.28062485 7.7074998 -1 6 C-1.66 6.66 -2.32 7.32 -3 8 C-2.45276317 4.62537285 -1.9451 2.91765 0 0 Z " fill="#B49552" transform="translate(189,243)"/>
<path d="M0 0 C0.33 0.66 0.66 1.32 1 2 C2.65249487 2.70105843 4.32367583 3.35800351 6 4 C7.29490291 4.68138497 8.58634191 5.3693771 9.875 6.0625 C13.63468993 7.98523116 16.80751852 8.65062654 21 9 C21 9.33 21 9.66 21 10 C14.09647445 10.51137226 9.25172386 8.86964374 3 6 C3 5.34 3 4.68 3 4 C2.01 4 1.02 4 0 4 C0 2.68 0 1.36 0 0 Z " fill="#9C8D62" transform="translate(229,291)"/>
<path d="M0 0 C-0.33 1.32 -0.66 2.64 -1 4 C-2.36125 3.938125 -2.36125 3.938125 -3.75 3.875 C-6.8782046 3.99531556 -8.38614006 4.3914708 -11 6 C-11.33 5.01 -11.66 4.02 -12 3 C-10.75823305 2.29773859 -9.50614401 1.61370891 -8.25 0.9375 C-7.20585937 0.36322266 -7.20585937 0.36322266 -6.140625 -0.22265625 C-3.63859372 -1.1312406 -2.4667645 -0.88336837 0 0 Z " fill="#CFA865" transform="translate(280,166)"/>
<path d="M0 0 C1.32 0.66 2.64 1.32 4 2 C3.67 4.64 3.34 7.28 3 10 C1.0625 9.3125 1.0625 9.3125 -1 8 C-1.75 5.375 -1.75 5.375 -2 3 C-1.34 2.67 -0.68 2.34 0 2 C0 1.34 0 0.68 0 0 Z " fill="#C59E57" transform="translate(209,274)"/>
<path d="M0 0 C3 0 3 0 6 1 C6 3.97 6 6.94 6 10 C5.01 10 4.02 10 3 10 C2.67 8.35 2.34 6.7 2 5 C0.68 5.99 -0.64 6.98 -2 8 C-1.34 5.36 -0.68 2.72 0 0 Z " fill="#A88D5A" transform="translate(206,184)"/>
<path d="M0 0 C1.09570312 0.10183594 2.19140625 0.20367187 3.3203125 0.30859375 C4.16335937 0.39238281 5.00640625 0.47617188 5.875 0.5625 C5.235625 0.871875 4.59625 1.18125 3.9375 1.5 C1.93889179 2.3970163 1.93889179 2.3970163 0.875 3.5625 C-0.64428038 3.63429964 -2.16667482 3.64642007 -3.6875 3.625 C-4.51378906 3.61597656 -5.34007812 3.60695312 -6.19140625 3.59765625 C-6.82949219 3.58605469 -7.46757812 3.57445312 -8.125 3.5625 C-8.125 2.5725 -8.125 1.5825 -8.125 0.5625 C-5.28943413 -0.85528293 -3.1341294 -0.30007622 0 0 Z " fill="#CDAE6E" transform="translate(248.125,175.4375)"/>
<path d="M0 0 C4.31395349 8.01162791 4.31395349 8.01162791 3.625 12.375 C3.41875 12.91125 3.2125 13.4475 3 14 C0 12 0 12 -0.546875 9.94140625 C-0.61390625 9.15636719 -0.6809375 8.37132812 -0.75 7.5625 C-0.82734375 6.78003906 -0.9046875 5.99757813 -0.984375 5.19140625 C-1 3 -1 3 0 0 Z M-3 4 C-2.34 4.66 -1.68 5.32 -1 6 C-1.99 6 -2.98 6 -4 6 C-3.67 5.34 -3.34 4.68 -3 4 Z " fill="#AE925E" transform="translate(205,259)"/>
<path d="M0 0 C0.33 0.99 0.66 1.98 1 3 C0.67 3.66 0.34 4.32 0 5 C-1.98 5 -3.96 5 -6 5 C-6.33 4.34 -6.66 3.68 -7 3 C-6.01 2.67 -5.02 2.34 -4 2 C-5.32 2 -6.64 2 -8 2 C-8 1.34 -8 0.68 -8 0 C-5.13822943 -1.43088528 -3.06624227 -0.59991697 0 0 Z " fill="#D0A865" transform="translate(181,262)"/>
<path d="M0 0 C0 1.98 0 3.96 0 6 C-0.66 6 -1.32 6 -2 6 C-2 9.3 -2 12.6 -2 16 C-2.33 16 -2.66 16 -3 16 C-3.33 13.36 -3.66 10.72 -4 8 C-4.66 8 -5.32 8 -6 8 C-6.33 8.66 -6.66 9.32 -7 10 C-7 9.01 -7 8.02 -7 7 C-6.34 7 -5.68 7 -5 7 C-4.896875 6.21625 -4.79375 5.4325 -4.6875 4.625 C-4.00541465 2.02067414 -3.23533224 0 0 0 Z " fill="#D0AB66" transform="translate(207,212)"/>
<path d="M0 0 C0.33 1.32 0.66 2.64 1 4 C1.66 4 2.32 4 3 4 C3 5.32 3 6.64 3 8 C4.32 7.01 5.64 6.02 7 5 C7.66 6.98 8.32 8.96 9 11 C8.01 10.67 7.02 10.34 6 10 C5.01 10.99 4.02 11.98 3 13 C-0.42857143 4.57142857 -0.42857143 4.57142857 0 0 Z " fill="#9E885E" transform="translate(192,179)"/>
<path d="M0 0 C2.31 0 4.62 0 7 0 C6.67 2.64 6.34 5.28 6 8 C2.37 8 -1.26 8 -5 8 C-2.64046906 5.64046906 -1.22104383 5.50858587 2 5 C1.67 4.34 1.34 3.68 1 3 C1.99 2.67 2.98 2.34 4 2 C2.68 2 1.36 2 0 2 C0 1.34 0 0.68 0 0 Z " fill="#D0AE6E" transform="translate(332,181)"/>
<path d="M0 0 C0.66 0.33 1.32 0.66 2 1 C2.40729228 3.32156597 2.74438677 5.6568787 3 8 C1.02 8.66 -0.96 9.32 -3 10 C-3.36923077 3.47692308 -3.36923077 3.47692308 -1.5 1.0625 C-1.005 0.711875 -0.51 0.36125 0 0 Z " fill="#D0B376" transform="translate(210,176)"/>
<path d="M0 0 C1.65 0.33 3.3 0.66 5 1 C5.625 2.875 5.625 2.875 6 5 C4 7 4 7 0.375 7.125 C-0.73875 7.08375 -1.8525 7.0425 -3 7 C-2.34 5.68 -1.68 4.36 -1 3 C-0.34 3.66 0.32 4.32 1 5 C1.33 4.34 1.66 3.68 2 3 C1.34 3 0.68 3 0 3 C0 2.01 0 1.02 0 0 Z " fill="#BAA069" transform="translate(294,148)"/>
<path d="M0 0 C3.3 0 6.6 0 10 0 C10 1.32 10 2.64 10 4 C2.57142857 4.28571429 2.57142857 4.28571429 -1 2 C-0.67 1.34 -0.34 0.68 0 0 Z " fill="#D0A355" transform="translate(246,303)"/>
<path d="M0 0 C0.99 0 1.98 0 3 0 C4.35439668 2.70879335 4.06501451 5.00933268 4 8 C3.01 8.495 3.01 8.495 2 9 C1.67 8.67 1.34 8.34 1 8 C0.01 7.67 -0.98 7.34 -2 7 C-1.42415568 4.61435923 -0.77772405 2.33317216 0 0 Z " fill="#D0AA67" transform="translate(209,196)"/>
<path d="M0 0 C0.33 0 0.66 0 1 0 C1 2.31 1 4.62 1 7 C1.99 6.67 2.98 6.34 4 6 C6.00875442 6.27571139 8.01178687 6.60235737 10 7 C10 7.33 10 7.66 10 8 C4.06 8.495 4.06 8.495 -2 9 C-1.67 9.99 -1.34 10.98 -1 12 C-1.66 12 -2.32 12 -3 12 C-2.49202991 7.6822542 -1.80317221 3.96697886 0 0 Z " fill="#A38A5F" transform="translate(275,125)"/>
<path d="M0 0 C-0.33 1.65 -0.66 3.3 -1 5 C-1.99 5.33 -2.98 5.66 -4 6 C-4.33 4.68 -4.66 3.36 -5 2 C-5.66 2 -6.32 2 -7 2 C-7 1.01 -7 0.02 -7 -1 C-3.51418144 -2.2020064 -3.32007656 -2.21338437 0 0 Z " fill="#CFA766" transform="translate(330,263)"/>
<path d="M0 0 C0 3.59857954 -0.95830515 5.09451118 -3 8 C-3.66 8 -4.32 8 -5 8 C-5.33 9.32 -5.66 10.64 -6 12 C-7.98 12.33 -9.96 12.66 -12 13 C-11.34 12.01 -10.68 11.02 -10 10 C-9.34 10 -8.68 10 -8 10 C-8 9.34 -8 8.68 -8 8 C-7.34 8 -6.68 8 -6 8 C-5.7525 7.4225 -5.505 6.845 -5.25 6.25 C-3.83316683 3.6997003 -2.12372463 1.98214299 0 0 Z " fill="#8F8255" transform="translate(297,227)"/>
<path d="M0 0 C2.9375 0.8125 2.9375 0.8125 6 2 C6.33 2.99 6.66 3.98 7 5 C5.35 5.66 3.7 6.32 2 7 C2 6.34 2 5.68 2 5 C0.7934375 4.566875 0.7934375 4.566875 -0.4375 4.125 C-3 3 -3 3 -4 1 C-2.68 1.33 -1.36 1.66 0 2 C0 1.34 0 0.68 0 0 Z " fill="#B39656" transform="translate(173,225)"/>
<path d="M0 0 C1 3 1 3 0 6 C0.99 6 1.98 6 3 6 C3 5.34 3 4.68 3 4 C3.66 4 4.32 4 5 4 C5 3.01 5 2.02 5 1 C5.99 1 6.98 1 8 1 C6.50902342 4.7952131 4.24299151 6.61042731 1 9 C-0.65 7.35 -2.3 5.7 -4 4 C-2.68 2.68 -1.36 1.36 0 0 Z " fill="#9B8664" transform="translate(239,201)"/>
<path d="M0 0 C1.52519276 0.08937803 3.04681929 0.24537146 4.5625 0.4375 C5.80193359 0.59025391 5.80193359 0.59025391 7.06640625 0.74609375 C7.70449219 0.82988281 8.34257812 0.91367188 9 1 C9 1.33 9 1.66 9 2 C6.69 2 4.38 2 2 2 C2 3.65 2 5.3 2 7 C4.64 7 7.28 7 10 7 C10 7.33 10 7.66 10 8 C6.7 8 3.4 8 0 8 C-0.38063221 5.6739143 -0.71269945 3.33944736 -1 1 C-0.67 0.67 -0.34 0.34 0 0 Z " fill="#9E9069" transform="translate(314,183)"/>
<path d="M0 0 C0.33 0.99 0.66 1.98 1 3 C0.34 3.66 -0.32 4.32 -1 5 C-2.03842565 7.31648799 -3.0421975 9.64903024 -4 12 C-4.33 11.34 -4.66 10.68 -5 10 C-4.67 9.01 -4.34 8.02 -4 7 C-4.99 6.67 -5.98 6.34 -7 6 C-6.67 5.01 -6.34 4.02 -6 3 C-5.34 3 -4.68 3 -4 3 C-4 2.34 -4 1.68 -4 1 C-2.68 0.67 -1.36 0.34 0 0 Z " fill="#D0AB66" transform="translate(221,183)"/>
<path d="M0 0 C-0.99 0.66 -1.98 1.32 -3 2 C-3 2.66 -3 3.32 -3 4 C-2.34 4.33 -1.68 4.66 -1 5 C-3.01822917 4.96744792 -5.03645833 4.93489583 -7.0546875 4.90234375 C-9.08185404 4.87350758 -9.08185404 4.87350758 -11 6 C-11.33 4.68 -11.66 3.36 -12 2 C-7.8794254 0.00214565 -4.54805635 -0.17835515 0 0 Z M-10 2 C-8.515 2.99 -8.515 2.99 -7 4 C-7 3.34 -7 2.68 -7 2 C-7.99 2 -8.98 2 -10 2 Z " fill="#AF915B" transform="translate(283,140)"/>
<path d="M0 0 C0.99 0 1.98 0 3 0 C2.88512252 1.58409994 2.75765492 3.16728963 2.625 4.75 C2.52058594 6.07257813 2.52058594 6.07257813 2.4140625 7.421875 C2.00149945 9.99066382 1.28839043 11.75841015 0 14 C-1.03115279 10.73086376 -0.9638984 8.13958652 -0.5625 4.75 C-0.46066406 3.85796875 -0.35882813 2.9659375 -0.25390625 2.046875 C-0.17011719 1.37140625 -0.08632812 0.6959375 0 0 Z " fill="#A28E5F" transform="translate(227,155)"/>
<path d="M0 0 C1 3 1 3 -0.4375 6.1875 C-1.2109375 7.5796875 -1.2109375 7.5796875 -2 9 C-2.66 9 -3.32 9 -4 9 C-4 9.99 -4 10.98 -4 12 C-4.66 12 -5.32 12 -6 12 C-6.33 12.99 -6.66 13.98 -7 15 C-6.72694671 8.44672101 -4.18788859 4.93069452 0 0 Z " fill="#A18D60" transform="translate(237,125)"/>
<path d="M0 0 C2.31 0.33 4.62 0.66 7 1 C6.67 2.65 6.34 4.3 6 6 C7.65 6.33 9.3 6.66 11 7 C10.01 7.495 10.01 7.495 9 8 C8.67 8.66 8.34 9.32 8 10 C6.84806377 8.90220176 5.70365063 7.79650554 4.5625 6.6875 C3.92441406 6.07261719 3.28632813 5.45773437 2.62890625 4.82421875 C1 3 1 3 0 0 Z " fill="#AF9662" transform="translate(194,277)"/>
<path d="M0 0 C0.66 0 1.32 0 2 0 C3.38149095 3.73002558 2.43774626 5.40563435 1 9 C0.53696097 11.98962154 0.24955129 14.98568311 0 18 C-0.33 18 -0.66 18 -1 18 C-1.33 12.72 -1.66 7.44 -2 2 C-1.67 2.66 -1.34 3.32 -1 4 C-0.67 2.68 -0.34 1.36 0 0 Z " fill="#937C4A" transform="translate(327,225)"/>
<path d="M0 0 C1.32 0.33 2.64 0.66 4 1 C4 4 4 4 2.0625 6 C1.381875 6.66 0.70125 7.32 0 8 C-0.33 8.99 -0.66 9.98 -1 11 C-1.66 11 -2.32 11 -3 11 C-2.11223998 7.30099992 -1.05418136 3.65449539 0 0 Z " fill="#B49660" transform="translate(238,127)"/>
<path d="M0 0 C2 1.375 2 1.375 4 4 C4.35791096 7.3580469 4.23115823 10.63536357 4 14 C3.67 14 3.34 14 3 14 C2.67 11.69 2.34 9.38 2 7 C1.01 7 0.02 7 -1 7 C-1.33 5.02 -1.66 3.04 -2 1 C-1.34 0.67 -0.68 0.34 0 0 Z " fill="#9E8757" transform="translate(263,110)"/>
<path d="M0 0 C0.33 0.99 0.66 1.98 1 3 C0.67 3.66 0.34 4.32 0 5 C-2.32156597 5.40729228 -4.6568787 5.74438677 -7 6 C-6.625 3.5625 -6.625 3.5625 -6 1 C-4 0 -4 0 0 0 Z " fill="#C9A468" transform="translate(226,196)"/>
<path d="M0 0 C0 0.66 0 1.32 0 2 C-0.99 2.495 -0.99 2.495 -2 3 C0.31 3.66 2.62 4.32 5 5 C5 5.33 5 5.66 5 6 C1.7 6.33 -1.6 6.66 -5 7 C-5 5.35 -5 3.7 -5 2 C-5.66 1.67 -6.32 1.34 -7 1 C-4.53721199 -0.231394 -2.7204945 -0.07159196 0 0 Z " fill="#A08758" transform="translate(231,194)"/>
<path d="M0 0 C0.99 0 1.98 0 3 0 C3 0.66 3 1.32 3 2 C4.32 2.33 5.64 2.66 7 3 C5.71034824 4.37562854 4.37310707 5.70766393 3 7 C2.34 7 1.68 7 1 7 C0.34 5.02 -0.32 3.04 -1 1 C-0.67 0.67 -0.34 0.34 0 0 Z " fill="#CFA764" transform="translate(215,168)"/>
<path d="M0 0 C2.88575819 0.39803561 3.82189513 0.79009069 5.75 3.0625 C6.36875 4.0215625 6.36875 4.0215625 7 5 C3.92382812 5.29296875 3.92382812 5.29296875 0.84765625 5.5859375 C0.23792969 5.72257813 -0.37179687 5.85921875 -1 6 C-1.33 6.66 -1.66 7.32 -2 8 C-2.66 7.34 -3.32 6.68 -4 6 C-4 5.01 -4 4.02 -4 3 C-2.68 3.33 -1.36 3.66 0 4 C0 2.68 0 1.36 0 0 Z " fill="#A0895D" transform="translate(273,161)"/>
<path d="M0 0 C-0.33 2.64 -0.66 5.28 -1 8 C-2.32 8.33 -3.64 8.66 -5 9 C-5.1875 5.625 -5.1875 5.625 -5 2 C-2 0 -2 0 0 0 Z " fill="#CEA865" transform="translate(281,123)"/>
<path d="M0 0 C1.65 0 3.3 0 5 0 C7.48887372 4.68493876 6.85687773 7.9444214 6 13 C5.34 13 4.68 13 4 13 C4 9.37 4 5.74 4 2 C2.35 2 0.7 2 -1 2 C-0.67 1.34 -0.34 0.68 0 0 Z " fill="#AB9665" transform="translate(265,108)"/>
<path d="M0 0 C2.31 0.33 4.62 0.66 7 1 C7 1.66 7 2.32 7 3 C8.32 3.33 9.64 3.66 11 4 C11 4.66 11 5.32 11 6 C12.32 6.33 13.64 6.66 15 7 C14.01 7.495 14.01 7.495 13 8 C10.21484375 6.85546875 10.21484375 6.85546875 6.9375 5.1875 C5.85339844 4.64480469 4.76929688 4.10210937 3.65234375 3.54296875 C1 2 1 2 0 0 Z " fill="#99885D" transform="translate(215,296)"/>
<path d="M0 0 C1.32 0.33 2.64 0.66 4 1 C4.33 2.98 4.66 4.96 5 7 C2.625 6.75 2.625 6.75 0 6 C-1.3125 3.9375 -1.3125 3.9375 -2 2 C-1.34 2 -0.68 2 0 2 C0 1.34 0 0.68 0 0 Z " fill="#BEA262" transform="translate(176,246)"/>
<path d="M0 0 C1.85776765 3.13498292 2.20140476 5.37471432 2 9 C1.34 8.34 0.68 7.68 0 7 C-1.98 7.99 -1.98 7.99 -4 9 C-4.33 8.34 -4.66 7.68 -5 7 C-4.34 7 -3.68 7 -3 7 C-2.87625 6.21625 -2.7525 5.4325 -2.625 4.625 C-2 2 -2 2 0 0 Z " fill="#D2A558" transform="translate(191,259)"/>
<path d="M0 0 C0.33 0 0.66 0 1 0 C1.06058594 0.81984375 1.12117188 1.6396875 1.18359375 2.484375 C1.26738281 3.56203125 1.35117187 4.6396875 1.4375 5.75 C1.55931641 7.35101563 1.55931641 7.35101563 1.68359375 8.984375 C1.94090773 11.43679962 2.31812218 13.63921291 3 16 C2.01 16 1.02 16 0 16 C0 17.65 0 19.3 0 21 C-0.33 21 -0.66 21 -1 21 C-1.02888146 17.68751813 -1.04675799 14.37506833 -1.0625 11.0625 C-1.07087891 10.11697266 -1.07925781 9.17144531 -1.08789062 8.19726562 C-1.09111328 7.29814453 -1.09433594 6.39902344 -1.09765625 5.47265625 C-1.10289307 4.64000244 -1.10812988 3.80734863 -1.11352539 2.94946289 C-1 1 -1 1 0 0 Z " fill="#907F55" transform="translate(341,194)"/>
<path d="M0 0 C0.66 0 1.32 0 2 0 C2 1.98 2 3.96 2 6 C0.02 6.33 -1.96 6.66 -4 7 C-4 5.35 -4 3.7 -4 2 C-3.01 2 -2.02 2 -1 2 C-0.67 1.34 -0.34 0.68 0 0 Z " fill="#D0AA67" transform="translate(258,179)"/>
<path d="M0 0 C-1 3 -1 3 -4 5 C-4 6.32 -4 7.64 -4 9 C-5.32 8.67 -6.64 8.34 -8 8 C-7.8125 5.6875 -7.8125 5.6875 -7 3 C-2.96551724 0 -2.96551724 0 0 0 Z " fill="#C4A76C" transform="translate(252,159)"/>
<path d="M0 0 C0.66 0 1.32 0 2 0 C2 1.32 2 2.64 2 4 C2.66 4 3.32 4 4 4 C4.33 3.34 4.66 2.68 5 2 C4.67 4.97 4.34 7.94 4 11 C3.01 11 2.02 11 1 11 C0.67 7.37 0.34 3.74 0 0 Z " fill="#CAA96A" transform="translate(211,151)"/>
<path d="M0 0 C1.65 1.65 3.3 3.3 5 5 C4.01 5 3.02 5 2 5 C2 4.34 2 3.68 2 3 C1.01 3 0.02 3 -1 3 C-1.33 4.32 -1.66 5.64 -2 7 C-3.32 7.33 -4.64 7.66 -6 8 C-4.55746343 4.63408134 -2.66735273 2.48952921 0 0 Z " fill="#A59566" transform="translate(220,139)"/>
<path d="M0 0 C0.66 0 1.32 0 2 0 C0.22054913 4.04420651 -2.39529673 7.46078487 -5 11 C-5.66 9.68 -6.32 8.36 -7 7 C-6.01 7 -5.02 7 -4 7 C-4.33 6.01 -4.66 5.02 -5 4 C-4.01 4 -3.02 4 -2 4 C-1.34 2.68 -0.68 1.36 0 0 Z " fill="#AC9763" transform="translate(230,254)"/>
<path d="M0 0 C0.33 0 0.66 0 1 0 C1.054348 2.0622048 1.09294961 4.12482816 1.125 6.1875 C1.14820313 7.33605469 1.17140625 8.48460937 1.1953125 9.66796875 C1.00484152 12.91740372 0.39360127 15.08660521 -1 18 C-1.66 18 -2.32 18 -3 18 C-2.86722656 17.45472656 -2.73445313 16.90945313 -2.59765625 16.34765625 C-1.32210753 10.90097013 -0.53036157 5.56879648 0 0 Z " fill="#9B8B66" transform="translate(326,244)"/>
<path d="M0 0 C1.70884005 1.62339805 3.37446717 3.29319053 5 5 C5 5.66 5 6.32 5 7 C5.66 7 6.32 7 7 7 C7 7.66 7 8.32 7 9 C7.66 9.33 8.32 9.66 9 10 C6.03 9.505 6.03 9.505 3 9 C2.67 7.35 2.34 5.7 2 4 C1.34 4 0.68 4 0 4 C0 2.68 0 1.36 0 0 Z " fill="#AC9669" transform="translate(161,246)"/>
<path d="M0 0 C0.99 0 1.98 0 3 0 C1.44396229 3.81936528 -0.95604931 6.26044438 -4 9 C-4.66 9 -5.32 9 -6 9 C-6 8.34 -6 7.68 -6 7 C-5.34 7 -4.68 7 -4 7 C-3.67 5.35 -3.34 3.7 -3 2 C-2.01 2.33 -1.02 2.66 0 3 C0 2.01 0 1.02 0 0 Z " fill="#C0A36A" transform="translate(306,226)"/>
<path d="M0 0 C2 3 2 3 2 7 C1.34 7 0.68 7 0 7 C-0.33 7.66 -0.66 8.32 -1 9 C-1 8.34 -1 7.68 -1 7 C-1.99 6.67 -2.98 6.34 -4 6 C-1.125 1.125 -1.125 1.125 0 0 Z " fill="#BE9A56" transform="translate(299,230)"/>
<path d="M0 0 C0 0.99 0 1.98 0 3 C1.32 2.67 2.64 2.34 4 2 C5.43088528 4.86177057 4.59991697 6.93375773 4 10 C3.34 9.67 2.68 9.34 2 9 C1.375 6.9375 1.375 6.9375 1 5 C0.01 5.495 0.01 5.495 -1 6 C-1 4.68 -1 3.36 -1 2 C-2.32 2.33 -3.64 2.66 -5 3 C-2.25 0 -2.25 0 0 0 Z " fill="#857353" transform="translate(261,142)"/>
<path d="M0 0 C3.3 0 6.6 0 10 0 C9.67 0.99 9.34 1.98 9 3 C6.03 3 3.06 3 0 3 C0 2.01 0 1.02 0 0 Z " fill="#D1A95E" transform="translate(276,133)"/>
<path d="M0 0 C0.33 0.66 0.66 1.32 1 2 C0.67 2.66 0.34 3.32 0 4 C3.465 3.505 3.465 3.505 7 3 C5.35 4.98 3.7 6.96 2 9 C0.29115995 7.37660195 -1.37446717 5.70680947 -3 4 C-3 3.34 -3 2.68 -3 2 C-2.01 1.34 -1.02 0.68 0 0 Z " fill="#9A8054" transform="translate(219,198)"/>
<path d="M0 0 C0.33 0 0.66 0 1 0 C1 2.64 1 5.28 1 8 C0.01 8.33 -0.98 8.66 -2 9 C-2 7.68 -2 6.36 -2 5 C-2.66 5 -3.32 5 -4 5 C-4 3.68 -4 2.36 -4 1 C-3.34 1 -2.68 1 -2 1 C-1.67 1.66 -1.34 2.32 -1 3 C-0.67 2.01 -0.34 1.02 0 0 Z " fill="#CFAF6D" transform="translate(197,178)"/>
<path d="M0 0 C-0.33 1.98 -0.66 3.96 -1 6 C-1.99 6.33 -2.98 6.66 -4 7 C-4.66 6.67 -5.32 6.34 -6 6 C-6 5.01 -6 4.02 -6 3 C-5.34 3 -4.68 3 -4 3 C-4 2.34 -4 1.68 -4 1 C-2 0 -2 0 0 0 Z " fill="#C7A967" transform="translate(243,148)"/>
<path d="M0 0 C1.32 0.66 2.64 1.32 4 2 C3 5 3 5 1 6 C1 6.66 1 7.32 1 8 C-0.32 7.67 -1.64 7.34 -3 7 C-3 6.01 -3 5.02 -3 4 C-2.01 3.34 -1.02 2.68 0 2 C0 1.34 0 0.68 0 0 Z " fill="#CFA457" transform="translate(225,253)"/>
<path d="M0 0 C0.99 0.66 1.98 1.32 3 2 C2 6 2 6 1 10 C-1.29379749 6.55930376 -2 5.27709699 -2 1 C-1.34 0.67 -0.68 0.34 0 0 Z " fill="#98875E" transform="translate(169,235)"/>
<path d="M0 0 C1.04449911 3.13349732 0.93423645 3.98968256 0 7 C-1.32 7 -2.64 7 -4 7 C-4 5.02 -4 3.04 -4 1 C-2.68 0.67 -1.36 0.34 0 0 Z " fill="#CAA469" transform="translate(226,162)"/>
<path d="M0 0 C0.93423645 3.01031744 1.04449911 3.86650268 0 7 C0.99 7.66 1.98 8.32 3 9 C1.68 9.99 0.36 10.98 -1 12 C-1 11.01 -1 10.02 -1 9 C-1.66 8.67 -2.32 8.34 -3 8 C-3.33 7.34 -3.66 6.68 -4 6 C-3.34 6 -2.68 6 -2 6 C-1.34 4.02 -0.68 2.04 0 0 Z " fill="#A69060" transform="translate(265,126)"/>
<path d="M0 0 C4.29 0.33 8.58 0.66 13 1 C13 1.33 13 1.66 13 2 C11.39679026 2.19551338 9.79237014 2.38111983 8.1875 2.5625 C7.29417969 2.66691406 6.40085938 2.77132813 5.48046875 2.87890625 C3 3 3 3 0 2 C0 1.34 0 0.68 0 0 Z " fill="#C3A168" transform="translate(242,306)"/>
<path d="M0 0 C-4.14946892 2.14627703 -7.00921648 3.17271089 -11.6875 2.5625 C-12.89986328 2.40974609 -12.89986328 2.40974609 -14.13671875 2.25390625 C-14.75160156 2.17011719 -15.36648438 2.08632813 -16 2 C-16 1.67 -16 1.34 -16 1 C-13.8973294 0.63705686 -11.79278943 0.28493028 -9.6875 -0.0625 C-8.51574219 -0.25972656 -7.34398437 -0.45695312 -6.13671875 -0.66015625 C-3 -1 -3 -1 0 0 Z " fill="#958861" transform="translate(280,300)"/>
<path d="M0 0 C1.32 0.66 2.64 1.32 4 2 C3.01 2.495 3.01 2.495 2 3 C0.86649466 5.01669827 0.86649466 5.01669827 0 7 C-0.99 6.67 -1.98 6.34 -3 6 C-1.125 1.125 -1.125 1.125 0 0 Z " fill="#CEA155" transform="translate(309,284)"/>
<path d="M0 0 C1.60031344 3.20062687 0.03173691 5.72271806 -1 9 C-2.98 9.33 -4.96 9.66 -7 10 C-6.02223933 8.51990357 -5.0427506 7.04094856 -4.0625 5.5625 C-3.51722656 4.73878906 -2.97195313 3.91507812 -2.41015625 3.06640625 C-1 1 -1 1 0 0 Z " fill="#A49262" transform="translate(318,270)"/>
<path d="M0 0 C2.475 0.495 2.475 0.495 5 1 C5.33 1.99 5.66 2.98 6 4 C5.34 4 4.68 4 4 4 C4 4.66 4 5.32 4 6 C3.01 6 2.02 6 1 6 C0.67 4.02 0.34 2.04 0 0 Z " fill="#D1AB65" transform="translate(181,256)"/>
<path d="M0 0 C0.33 0 0.66 0 1 0 C1 3.3 1 6.6 1 10 C0.01 10 -0.98 10 -2 10 C-3.05236973 6.65155086 -3.20005388 5.40920111 -1.625 2.1875 C-1.08875 1.465625 -0.5525 0.74375 0 0 Z " fill="#CEA860" transform="translate(155,230)"/>
<path d="M0 0 C0.66 0.33 1.32 0.66 2 1 C1.525625 1.495 1.05125 1.99 0.5625 2.5 C-1.62167907 5.99468651 -1.65913911 8.90966936 -2 13 C-2.70394612 11.68596724 -3.36345658 10.3479743 -4 9 C-4.309375 8.360625 -4.61875 7.72125 -4.9375 7.0625 C-5 5 -5 5 -2.5625 2.25 C-1.716875 1.5075 -0.87125 0.765 0 0 Z " fill="#897A59" transform="translate(327,214)"/>
<path d="M0 0 C0.33 0.66 0.66 1.32 1 2 C0.22265625 3.7265625 0.22265625 3.7265625 -0.9375 5.625 C-1.618125 6.73875 -2.29875 7.8525 -3 9 C-3.33 9 -3.66 9 -4 9 C-4 6.36 -4 3.72 -4 1 C-2.68 0.67 -1.36 0.34 0 0 Z " fill="#A68E5C" transform="translate(217,194)"/>
<path d="M0 0 C0.66 0 1.32 0 2 0 C2 0.66 2 1.32 2 2 C3.32 1.34 4.64 0.68 6 0 C5.67 1.65 5.34 3.3 5 5 C3.33333333 5 1.66666667 5 0 5 C0 5.66 0 6.32 0 7 C-0.66 7 -1.32 7 -2 7 C-2 6.01 -2 5.02 -2 4 C-1.34 4 -0.68 4 0 4 C0 2.68 0 1.36 0 0 Z " fill="#978253" transform="translate(239,161)"/>
<path d="M0 0 C0 1.65 0 3.3 0 5 C-1.98 5.99 -1.98 5.99 -4 7 C-4 6.01 -4 5.02 -4 4 C-5.32 4 -6.64 4 -8 4 C-6 1 -6 1 -4 0.3125 C-2 0 -2 0 0 0 Z " fill="#AA9368" transform="translate(260,144)"/>
<path d="M0 0 C0 1.32 0 2.64 0 4 C0.66 4.66 1.32 5.32 2 6 C0.35 6.66 -1.3 7.32 -3 8 C-3.12375 7.195625 -3.2475 6.39125 -3.375 5.5625 C-3.684375 4.2940625 -3.684375 4.2940625 -4 3 C-4.66 2.67 -5.32 2.34 -6 2 C-2.25 0 -2.25 0 0 0 Z " fill="#A68D59" transform="translate(289,114)"/>
<path d="M0 0 C3.73187415 1.44459644 3.73187415 1.44459644 4.875 3.8125 C5.0358641 6.62762177 4.19164995 8.476506 3 11 C2.34 11 1.68 11 1 11 C1 10.34 1 9.68 1 9 C0.34 8.67 -0.32 8.34 -1 8 C-0.01 7.34 0.98 6.68 2 6 C1.49396008 3.83125748 1.00016187 2.00032373 0 0 Z " fill="#AF8E51" transform="translate(204,279)"/>
<path d="M0 0 C0 0.99 0 1.98 0 3 C-0.66 3 -1.32 3 -2 3 C-2.33 3.99 -2.66 4.98 -3 6 C-3 5.34 -3 4.68 -3 4 C-4.98 4 -6.96 4 -9 4 C-3.7826087 0 -3.7826087 0 0 0 Z " fill="#AF9763" transform="translate(240,242)"/>
<path d="M0 0 C1.41623216 -0.05447047 2.83308191 -0.09300508 4.25 -0.125 C5.03890625 -0.14820313 5.8278125 -0.17140625 6.640625 -0.1953125 C9.20731941 0.0171622 10.7916067 0.71345895 13 2 C12.01 2.99 11.02 3.98 10 5 C8.68 4.34 7.36 3.68 6 3 C6.33 2.67 6.66 2.34 7 2 C4.69 1.67 2.38 1.34 0 1 C0 0.67 0 0.34 0 0 Z " fill="#A98E4F" transform="translate(318,182)"/>
<path d="M0 0 C2.97 0 5.94 0 9 0 C9 0.99 9 1.98 9 3 C6.69 3.33 4.38 3.66 2 4 C2.33 3.01 2.66 2.02 3 1 C2.01 0.67 1.02 0.34 0 0 Z " fill="#D2B072" transform="translate(253,158)"/>
<path d="M0 0 C0.99 0 1.98 0 3 0 C3 0.99 3 1.98 3 3 C4.32 3.66 5.64 4.32 7 5 C4.36749612 6.31625194 3.19820944 5.74813658 0.375 5.0625 C-0.44226563 4.86785156 -1.25953125 4.67320312 -2.1015625 4.47265625 C-3.04128906 4.23869141 -3.04128906 4.23869141 -4 4 C-2.68 3.67 -1.36 3.34 0 3 C0 2.01 0 1.02 0 0 Z " fill="#A98F63" transform="translate(262,158)"/>
<path d="M0 0 C0.99 0 1.98 0 3 0 C2.67 0.66 2.34 1.32 2 2 C1.34 1.34 0.68 0.68 0 0 Z M10 3 C10 3.33 10 3.66 10 4 C8.58622218 4.36552803 7.16879424 4.71695495 5.75 5.0625 C4.96109375 5.25972656 4.1721875 5.45695313 3.359375 5.66015625 C0.89605178 6.01497267 -0.65604132 5.76877544 -3 5 C0.83998013 0.82610856 4.92436237 2.0998335 10 3 Z " fill="#C0A376" transform="translate(273,142)"/>
<path d="M0 0 C0.33 0 0.66 0 1 0 C1 2.31 1 4.62 1 7 C1.99 7.33 2.98 7.66 4 8 C2.68 9.32 1.36 10.64 0 12 C-0.19401633 10.18818595 -0.38004375 8.37551468 -0.5625 6.5625 C-0.66691406 5.55316406 -0.77132812 4.54382813 -0.87890625 3.50390625 C-0.91886719 2.67761719 -0.95882812 1.85132813 -1 1 C-0.67 0.67 -0.34 0.34 0 0 Z " fill="#CEA75F" transform="translate(204,264)"/>
<path d="M0 0 C0.33 0.66 0.66 1.32 1 2 C1.66 2.33 2.32 2.66 3 3 C2.34 3 1.68 3 1 3 C1 3.99 1 4.98 1 6 C0.01 6 -0.98 6 -2 6 C-2.66 6.66 -3.32 7.32 -4 8 C-4 6.68 -4 5.36 -4 4 C-3.34 4 -2.68 4 -2 4 C-2 3.01 -2 2.02 -2 1 C-1.34 0.67 -0.68 0.34 0 0 Z " fill="#CEA458" transform="translate(305,223)"/>
<path d="M0 0 C3.96 0 7.92 0 12 0 C12 0.66 12 1.32 12 2 C7.28400182 2.92470553 4.32734391 3.22923777 0 1 C0 0.67 0 0.34 0 0 Z " fill="#AF8E5C" transform="translate(221,207)"/>
<path d="M0 0 C1.32 0.33 2.64 0.66 4 1 C4.33 2.32 4.66 3.64 5 5 C3.0625 5.5625 3.0625 5.5625 1 6 C0 5 0 5 -0.0625 2.4375 C-0.041875 1.633125 -0.02125 0.82875 0 0 Z " fill="#C0A266" transform="translate(234,206)"/>
<path d="M0 0 C0 2.64 0 5.28 0 8 C-1.32 7.67 -2.64 7.34 -4 7 C-3.625 4.0625 -3.625 4.0625 -3 1 C-1 0 -1 0 0 0 Z " fill="#CDA968" transform="translate(209,187)"/>
<path d="M0 0 C-1 2 -1 2 -2.84765625 2.6328125 C-3.57855469 2.79523438 -4.30945313 2.95765625 -5.0625 3.125 C-6.16271484 3.37636719 -6.16271484 3.37636719 -7.28515625 3.6328125 C-7.85105469 3.75398437 -8.41695313 3.87515625 -9 4 C-9 3.34 -9 2.68 -9 2 C-9.99 1.67 -10.98 1.34 -12 1 C-7.93631321 0.22596442 -4.13574827 -0.0984702 0 0 Z " fill="#A39063" transform="translate(348,179)"/>
<path d="M0 0 C0.66 1.98 1.32 3.96 2 6 C1.34 6 0.68 6 0 6 C-0.33 5.34 -0.66 4.68 -1 4 C-2.98 4 -4.96 4 -7 4 C-3.375 0 -3.375 0 0 0 Z " fill="#A28D6A" transform="translate(245,121)"/>
<path d="M0 0 C0 0.66 0 1.32 0 2 C0.66 2.33 1.32 2.66 2 3 C0.68 3.99 -0.64 4.98 -2 6 C-3.70840281 4.36587557 -4.93453047 3.13093906 -6 1 C-4 0 -4 0 0 0 Z " fill="#CFA862" transform="translate(317,279)"/>
<path d="M0 0 C0.66 0 1.32 0 2 0 C2 0.66 2 1.32 2 2 C2.66 2 3.32 2 4 2 C3.67 3.32 3.34 4.64 3 6 C1.35 5.67 -0.3 5.34 -2 5 C-1.34 3.35 -0.68 1.7 0 0 Z " fill="#D0A963" transform="translate(168,256)"/>
<path d="M0 0 C0.99 0 1.98 0 3 0 C3.33 0.99 3.66 1.98 4 3 C3.01 3.33 2.02 3.66 1 4 C0.26676204 6.01508358 0.26676204 6.01508358 0 8 C-0.33 8 -0.66 8 -1 8 C-1.125 2.25 -1.125 2.25 0 0 Z " fill="#B89F6E" transform="translate(202,210)"/>
<path d="M0 0 C0.33 1.32 0.66 2.64 1 4 C2.32 4.33 3.64 4.66 5 5 C4.01 6.485 4.01 6.485 3 8 C2.01 8 1.02 8 0 8 C-0.38063221 5.6739143 -0.71269945 3.33944736 -1 1 C-0.67 0.67 -0.34 0.34 0 0 Z " fill="#A99159" transform="translate(213,147)"/>
<path d="M0 0 C0.99 0.33 1.98 0.66 3 1 C2.67 3.31 2.34 5.62 2 8 C1.01 7.67 0.02 7.34 -1 7 C-0.67 4.69 -0.34 2.38 0 0 Z " fill="#CDAA6E" transform="translate(223,144)"/>
<path d="M0 0 C2.0625 0.4375 2.0625 0.4375 4 1 C4 1.99 4 2.98 4 4 C4.66 4.33 5.32 4.66 6 5 C4.35 5.33 2.7 5.66 1 6 C1 4.68 1 3.36 1 2 C0.34 1.67 -0.32 1.34 -1 1 C-0.67 0.67 -0.34 0.34 0 0 Z " fill="#8B8053" transform="translate(265,138)"/>
<path d="M0 0 C0.66 0.33 1.32 0.66 2 1 C2.40729228 3.32156597 2.74438677 5.6568787 3 8 C2.01 8 1.02 8 0 8 C-0.38063221 5.6739143 -0.71269945 3.33944736 -1 1 C-0.67 0.67 -0.34 0.34 0 0 Z " fill="#C9A662" transform="translate(171,237)"/>
<path d="M0 0 C1.98 0.495 1.98 0.495 4 1 C3.67 2.65 3.34 4.3 3 6 C1.68 5.34 0.36 4.68 -1 4 C-0.67 2.68 -0.34 1.36 0 0 Z " fill="#D0A565" transform="translate(228,181)"/>
<path d="M0 0 C4.46839215 -0.21278058 7.82262526 0.40861915 12 2 C12 2.33 12 2.66 12 3 C7.83861737 3.08159574 4.0527516 2.98248524 0 2 C0 1.34 0 0.68 0 0 Z " fill="#9B8865" transform="translate(242,173)"/>
<path d="M0 0 C0.33 0.66 0.66 1.32 1 2 C0.0625 4.625 0.0625 4.625 -1 7 C-1.66 7 -2.32 7 -3 7 C-3 7.66 -3 8.32 -3 9 C-3.99 9 -4.98 9 -6 9 C-4.47291037 5.56404834 -2.40072955 2.88087546 0 0 Z " fill="#A68E5F" transform="translate(228,168)"/>
<path d="M0 0 C0.99 0.495 0.99 0.495 2 1 C2 1.66 2 2.32 2 3 C2.61875 2.814375 3.2375 2.62875 3.875 2.4375 C6 2 6 2 8 3 C8 3.66 8 4.32 8 5 C3.25 6.125 3.25 6.125 1 5 C0.375 2.4375 0.375 2.4375 0 0 Z " fill="#C6A26E" transform="translate(264,148)"/>
<path d="M0 0 C0.99 0.33 1.98 0.66 3 1 C2.67 3.64 2.34 6.28 2 9 C0 7 0 7 -0.125 3.375 C-0.08375 2.26125 -0.0425 1.1475 0 0 Z " fill="#CEAA61" transform="translate(245,134)"/>
<path d="M0 0 C-0.61277612 2.96175123 -1.25372522 4.38058783 -3 7 C-3.66 7 -4.32 7 -5 7 C-5.1875 4.625 -5.1875 4.625 -5 2 C-2 0 -2 0 0 0 Z " fill="#B99C64" transform="translate(324,275)"/>
<path d="M0 0 C4.875 2.625 4.875 2.625 6 6 C6.66 6 7.32 6 8 6 C8 6.66 8 7.32 8 8 C7.01 7.67 6.02 7.34 5 7 C5 6.34 5 5.68 5 5 C3.68 4.67 2.36 4.34 1 4 C0.67 2.68 0.34 1.36 0 0 Z " fill="#A8966A" transform="translate(194,269)"/>
<path d="M0 0 C2.64 0 5.28 0 8 0 C9.0625 1.875 9.0625 1.875 10 4 C9.67 4.66 9.34 5.32 9 6 C8.34 5.01 7.68 4.02 7 3 C3.44327821 1.7811879 3.44327821 1.7811879 0 1 C0 0.67 0 0.34 0 0 Z " fill="#9B875E" transform="translate(182,269)"/>
<path d="M0 0 C0.66 0 1.32 0 2 0 C2 2.64 2 5.28 2 8 C1.01 8 0.02 8 -1 8 C-0.67 5.36 -0.34 2.72 0 0 Z " fill="#D1A252" transform="translate(218,264)"/>
<path d="M0 0 C1.32 0.33 2.64 0.66 4 1 C4 1.66 4 2.32 4 3 C4.66 3 5.32 3 6 3 C6 4.65 6 6.3 6 8 C1.125 3.375 1.125 3.375 0 0 Z " fill="#AD9661" transform="translate(157,251)"/>
<path d="M0 0 C1.98 0.99 3.96 1.98 6 3 C6 3.66 6 4.32 6 5 C4.02 5 2.04 5 0 5 C0 3.35 0 1.7 0 0 Z " fill="#C7AC77" transform="translate(341,210)"/>
<path d="M0 0 C2.6875 0.3125 2.6875 0.3125 5 1 C5.33 1.99 5.66 2.98 6 4 C3.03 3.67 0.06 3.34 -3 3 C-2.01 2.01 -1.02 1.02 0 0 Z " fill="#CEA862" transform="translate(231,195)"/>
<path d="M0 0 C2.31 0.66 4.62 1.32 7 2 C7 3.65 7 5.3 7 7 C6.34 7 5.68 7 5 7 C5 6.34 5 5.68 5 5 C4.34 5 3.68 5 3 5 C3 4.34 3 3.68 3 3 C2.34 3 1.68 3 1 3 C0.67 2.01 0.34 1.02 0 0 Z " fill="#9D8C5F" transform="translate(196,193)"/>
<path d="M0 0 C0.99 0.66 1.98 1.32 3 2 C2.60196439 4.88575819 2.20990931 5.82189513 -0.0625 7.75 C-1.0215625 8.36875 -1.0215625 8.36875 -2 9 C-2 8.01 -2 7.02 -2 6 C-1.34 6 -0.68 6 0 6 C0 4.02 0 2.04 0 0 Z " fill="#928561" transform="translate(260,179)"/>
<path d="M0 0 C-0.61875 0.45375 -1.2375 0.9075 -1.875 1.375 C-4.05919833 2.97108919 -4.05919833 2.97108919 -6 5 C-6.99 5.495 -6.99 5.495 -8 6 C-8 4.35 -8 2.7 -8 1 C-5.07175348 0.02391783 -3.04386724 -0.08226668 0 0 Z " fill="#B49C6C" transform="translate(241,179)"/>
<path d="M0 0 C-1.44253657 3.36591866 -3.33264727 5.51047079 -6 8 C-5.6875 5.125 -5.6875 5.125 -5 2 C-2 0 -2 0 0 0 Z " fill="#A6935E" transform="translate(236,169)"/>
<path d="M0 0 C0.33 0.99 0.66 1.98 1 3 C2.32 3 3.64 3 5 3 C4.67 3.99 4.34 4.98 4 6 C1.69 5.34 -0.62 4.68 -3 4 C-3 3.34 -3 2.68 -3 2 C-2.01 1.34 -1.02 0.68 0 0 Z " fill="#AA915A" transform="translate(221,166)"/>
<path d="M0 0 C0.33 0 0.66 0 1 0 C1.33 2.97 1.66 5.94 2 9 C1.01 8.67 0.02 8.34 -1 8 C-1.04241723 5.66705225 -1.04092937 3.33297433 -1 1 C-0.67 0.67 -0.34 0.34 0 0 Z " fill="#D0A45E" transform="translate(233,141)"/>
<path d="M0 0 C0.99 0 1.98 0 3 0 C3 1.32 3 2.64 3 4 C1.35 4.33 -0.3 4.66 -2 5 C-1.125 1.125 -1.125 1.125 0 0 Z " fill="#C7AA73" transform="translate(263,140)"/>
<path d="M0 0 C0.33 0 0.66 0 1 0 C1 2.64 1 5.28 1 8 C1.66 8 2.32 8 3 8 C2.34 9.32 1.68 10.64 1 12 C-0.80619523 7.53763531 -1.11658501 4.68965706 0 0 Z " fill="#AB8C54" transform="translate(187,251)"/>
<path d="M0 0 C0.99 0.33 1.98 0.66 3 1 C3 2.32 3 3.64 3 5 C2.34 5 1.68 5 1 5 C0.67 5.99 0.34 6.98 0 8 C-0.33 8 -0.66 8 -1 8 C-1.125 2.25 -1.125 2.25 0 0 Z " fill="#CBA455" transform="translate(328,250)"/>
<path d="M0 0 C0.33 1.32 0.66 2.64 1 4 C1.66 4 2.32 4 3 4 C3 5.32 3 6.64 3 8 C2.34 8 1.68 8 1 8 C1 7.34 1 6.68 1 6 C-0.32 5.34 -1.64 4.68 -3 4 C-2.34 3.67 -1.68 3.34 -1 3 C-0.67 2.01 -0.34 1.02 0 0 Z " fill="#CEA65E" transform="translate(160,246)"/>
<path d="M0 0 C0.33 1.32 0.66 2.64 1 4 C0.34 4 -0.32 4 -1 4 C-1.33 4.99 -1.66 5.98 -2 7 C-3.32 6.67 -4.64 6.34 -6 6 C-4.71034824 4.62437146 -3.37310707 3.29233607 -2 2 C-1.34 2 -0.68 2 0 2 C0 1.34 0 0.68 0 0 Z " fill="#A18960" transform="translate(304,220)"/>
<path d="M0 0 C2.475 0.495 2.475 0.495 5 1 C4.34 2.65 3.68 4.3 3 6 C2.01 6 1.02 6 0 6 C0 4.02 0 2.04 0 0 Z " fill="#A28B4E" transform="translate(205,194)"/>
<path d="M0 0 C2.31 0 4.62 0 7 0 C4.60490662 2.89932357 2.68754757 3.50168276 -1 4 C-0.67 2.68 -0.34 1.36 0 0 Z " fill="#D0A75A" transform="translate(261,171)"/>
<path d="M0 0 C-0.33 1.32 -0.66 2.64 -1 4 C-2.32 3.67 -3.64 3.34 -5 3 C-4.67 2.34 -4.34 1.68 -4 1 C-4.66 0.67 -5.32 0.34 -6 0 C-3.50907189 -1.24546405 -2.58919267 -0.7767578 0 0 Z " fill="#C0A670" transform="translate(280,166)"/>
<path d="M0 0 C1.24546405 2.49092811 0.7767578 3.41080733 0 6 C-1.98 6.33 -3.96 6.66 -6 7 C-6 6.34 -6 5.68 -6 5 C-4.04072937 3.2856382 -2.04119788 1.61594832 0 0 Z " fill="#D0AD6D" transform="translate(239,159)"/>
<path d="M0 0 C2.22415411 1.11207705 4.0193996 2.49954515 6 4 C6.99 4.66 7.98 5.32 9 6 C3.375 6.25 3.375 6.25 0 4 C0 2.68 0 1.36 0 0 Z " fill="#917E5B" transform="translate(270,148)"/>
<path d="M0 0 C0.99 0 1.98 0 3 0 C3 1.65 3 3.3 3 5 C1.68 5 0.36 5 -1 5 C-0.67 3.35 -0.34 1.7 0 0 Z " fill="#CFAA67" transform="translate(215,146)"/>
<path d="M0 0 C0.99 0.33 1.98 0.66 3 1 C2.34 3.64 1.68 6.28 1 9 C0.34 8.34 -0.32 7.68 -1 7 C-0.625 3.375 -0.625 3.375 0 0 Z " fill="#CDAB6F" transform="translate(231,137)"/>
<path d="M0 0 C2.475 0.495 2.475 0.495 5 1 C4.67 1.99 4.34 2.98 4 4 C4.99 4.33 5.98 4.66 7 5 C4.69 4.67 2.38 4.34 0 4 C0 2.68 0 1.36 0 0 Z " fill="#BE9458" transform="translate(285,132)"/>
<path d="M0 0 C0.99 0.33 1.98 0.66 3 1 C2.67 1.99 2.34 2.98 2 4 C-0.64 4.33 -3.28 4.66 -6 5 C-4.59240479 2.18480957 -2.77416723 1.38708362 0 0 Z " fill="#A18961" transform="translate(294,127)"/>
<path d="M0 0 C0.33 0.66 0.66 1.32 1 2 C1.99 2 2.98 2 4 2 C3.67 4.97 3.34 7.94 3 11 C2.34 10.01 1.68 9.02 1 8 C1.875 5.3125 1.875 5.3125 3 3 C1.68 2.67 0.36 2.34 -1 2 C-0.67 1.34 -0.34 0.68 0 0 Z " fill="#A88F5C" transform="translate(255,117)"/>
<path d="M0 0 C0.66 0.33 1.32 0.66 2 1 C0.8125 3.5 0.8125 3.5 -1 6 C-3.6875 6.3125 -3.6875 6.3125 -6 6 C-4.71034824 4.62437146 -3.37310707 3.29233607 -2 2 C-1.34 2 -0.68 2 0 2 C0 1.34 0 0.68 0 0 Z " fill="#A08D61" transform="translate(304,285)"/>
<path d="M0 0 C0.93423645 3.01031744 1.04449911 3.86650268 0 7 C-0.99 7 -1.98 7 -3 7 C-2.625 4.0625 -2.625 4.0625 -2 1 C-1.34 0.67 -0.68 0.34 0 0 Z " fill="#C3A467" transform="translate(321,267)"/>
<path d="M0 0 C0.66 0 1.32 0 2 0 C2.33 2.64 2.66 5.28 3 8 C2.34 8 1.68 8 1 8 C-0.35439668 5.29120665 -0.06501451 2.99066732 0 0 Z " fill="#A99461" transform="translate(191,246)"/>
<path d="M0 0 C1.98 0.495 1.98 0.495 4 1 C3 4 3 4 1 6 C0.34 6 -0.32 6 -1 6 C-0.67 4.02 -0.34 2.04 0 0 Z " fill="#CDA863" transform="translate(187,241)"/>
<path d="M0 0 C0.99 0.33 1.98 0.66 3 1 C3.33 3.31 3.66 5.62 4 8 C3.01 7.67 2.02 7.34 1 7 C0.67 4.69 0.34 2.38 0 0 Z " fill="#CCAB5D" transform="translate(154,241)"/>
<path d="M0 0 C1.65 0 3.3 0 5 0 C5 0.66 5 1.32 5 2 C5.99 2.33 6.98 2.66 8 3 C8 3.33 8 3.66 8 4 C6.35 4 4.7 4 3 4 C2.67 3.01 2.34 2.02 2 1 C1.34 0.67 0.68 0.34 0 0 Z " fill="#D2A95C" transform="translate(179,232)"/>
<path d="M0 0 C0.99 0.33 1.98 0.66 3 1 C-0.465 3.97 -0.465 3.97 -4 7 C-4 5.68 -4 4.36 -4 3 C-2.68 2.67 -1.36 2.34 0 2 C0 1.34 0 0.68 0 0 Z " fill="#98895E" transform="translate(333,200)"/>
<path d="M0 0 C2 1 2 1 4 4 C2 7 2 7 0 8 C-1.125 2.25 -1.125 2.25 0 0 Z " fill="#9E8657" transform="translate(210,202)"/>
<path d="M0 0 C0.33 0.66 0.66 1.32 1 2 C-1.64 2.33 -4.28 2.66 -7 3 C-7 2.34 -7 1.68 -7 1 C-4.53721199 -0.231394 -2.7204945 -0.07159196 0 0 Z " fill="#CEA95C" transform="translate(247,175)"/>
<path d="M0 0 C2.97 0.495 2.97 0.495 6 1 C5.67 1.66 5.34 2.32 5 3 C3.02 3 1.04 3 -1 3 C-0.67 2.01 -0.34 1.02 0 0 Z " fill="#CCA751" transform="translate(329,184)"/>
<path d="M0 0 C0.33 0 0.66 0 1 0 C1.33 2.31 1.66 4.62 2 7 C0.35 6.67 -1.3 6.34 -3 6 C-2 4 -1 2 0 0 Z " fill="#B59B60" transform="translate(211,177)"/>
<path d="M0 0 C0.66 0 1.32 0 2 0 C1.67 1.65 1.34 3.3 1 5 C0.01 5.33 -0.98 5.66 -2 6 C-2 4.68 -2 3.36 -2 2 C-1.34 2 -0.68 2 0 2 C0 1.34 0 0.68 0 0 Z " fill="#CFA765" transform="translate(196,172)"/>
<path d="M0 0 C0.93065133 2.60582371 1.14917407 3.64198224 0.0625 6.25 C-0.4634375 7.11625 -0.4634375 7.11625 -1 8 C-1.68707555 5.50935112 -2 3.62113708 -2 1 C-1.34 0.67 -0.68 0.34 0 0 Z " fill="#C2A46D" transform="translate(285,116)"/>
<path d="M0 0 C-1 1 -1 1 -4.5625 1.0625 C-5.696875 1.041875 -6.83125 1.02125 -8 1 C-8 0.34 -8 -0.32 -8 -1 C-4.59745511 -2.2151946 -3.06748874 -1.86240388 0 0 Z " fill="#CFA758" transform="translate(299,116)"/>
</svg>
